%TF.GenerationSoftware,KiCad,Pcbnew,(7.0.0-0)*%
%TF.CreationDate,2023-10-06T17:45:21+02:00*%
%TF.ProjectId,annoying_little_shit,616e6e6f-7969-46e6-975f-6c6974746c65,rev?*%
%TF.SameCoordinates,Original*%
%TF.FileFunction,Paste,Top*%
%TF.FilePolarity,Positive*%
%FSLAX46Y46*%
G04 Gerber Fmt 4.6, Leading zero omitted, Abs format (unit mm)*
G04 Created by KiCad (PCBNEW (7.0.0-0)) date 2023-10-06 17:45:21*
%MOMM*%
%LPD*%
G01*
G04 APERTURE LIST*
G04 Aperture macros list*
%AMRoundRect*
0 Rectangle with rounded corners*
0 $1 Rounding radius*
0 $2 $3 $4 $5 $6 $7 $8 $9 X,Y pos of 4 corners*
0 Add a 4 corners polygon primitive as box body*
4,1,4,$2,$3,$4,$5,$6,$7,$8,$9,$2,$3,0*
0 Add four circle primitives for the rounded corners*
1,1,$1+$1,$2,$3*
1,1,$1+$1,$4,$5*
1,1,$1+$1,$6,$7*
1,1,$1+$1,$8,$9*
0 Add four rect primitives between the rounded corners*
20,1,$1+$1,$2,$3,$4,$5,0*
20,1,$1+$1,$4,$5,$6,$7,0*
20,1,$1+$1,$6,$7,$8,$9,0*
20,1,$1+$1,$8,$9,$2,$3,0*%
G04 Aperture macros list end*
%ADD10RoundRect,0.200000X-0.200000X-0.275000X0.200000X-0.275000X0.200000X0.275000X-0.200000X0.275000X0*%
%ADD11RoundRect,0.200000X0.275000X-0.200000X0.275000X0.200000X-0.275000X0.200000X-0.275000X-0.200000X0*%
%ADD12RoundRect,0.225000X-0.225000X-0.250000X0.225000X-0.250000X0.225000X0.250000X-0.225000X0.250000X0*%
%ADD13R,1.700000X0.650000*%
%ADD14R,1.000000X1.700000*%
%ADD15R,3.000000X0.650000*%
%ADD16RoundRect,0.150000X0.587500X0.150000X-0.587500X0.150000X-0.587500X-0.150000X0.587500X-0.150000X0*%
%ADD17RoundRect,0.150000X-0.150000X0.587500X-0.150000X-0.587500X0.150000X-0.587500X0.150000X0.587500X0*%
%ADD18RoundRect,0.250000X0.250000X-0.250000X0.250000X0.250000X-0.250000X0.250000X-0.250000X-0.250000X0*%
%ADD19RoundRect,0.225000X-0.250000X0.225000X-0.250000X-0.225000X0.250000X-0.225000X0.250000X0.225000X0*%
G04 APERTURE END LIST*
D10*
%TO.C,R6*%
X138725000Y-60500000D03*
X140375000Y-60500000D03*
%TD*%
D11*
%TO.C,R5*%
X141550000Y-64150000D03*
X141550000Y-62500000D03*
%TD*%
D12*
%TO.C,C2*%
X134475000Y-60500000D03*
X136025000Y-60500000D03*
%TD*%
D13*
%TO.C,U1*%
X138699999Y-66999999D03*
X138699999Y-65729999D03*
X138699999Y-64459999D03*
X138699999Y-63189999D03*
X131399999Y-63189999D03*
X131399999Y-64459999D03*
X131399999Y-65729999D03*
X131399999Y-66999999D03*
%TD*%
D10*
%TO.C,R1*%
X127225000Y-62595000D03*
X128875000Y-62595000D03*
%TD*%
D14*
%TO.C,BZ1*%
X128499999Y-59749999D03*
X131999999Y-59799999D03*
X131999999Y-56199999D03*
%TD*%
D15*
%TO.C,J1*%
X120049999Y-58729999D03*
X123049999Y-59999999D03*
X120049999Y-61269999D03*
X123049999Y-62539999D03*
X120049999Y-63809999D03*
X123049999Y-65079999D03*
%TD*%
D10*
%TO.C,R4*%
X121725000Y-69000000D03*
X123375000Y-69000000D03*
%TD*%
D16*
%TO.C,Q1*%
X127937500Y-71045000D03*
X127937500Y-69145000D03*
X126062500Y-70095000D03*
%TD*%
D17*
%TO.C,Q2*%
X139000000Y-56062500D03*
X137100000Y-56062500D03*
X138050000Y-57937500D03*
%TD*%
D10*
%TO.C,R3*%
X127225000Y-66595000D03*
X128875000Y-66595000D03*
%TD*%
D18*
%TO.C,D1*%
X134750000Y-58250000D03*
X134750000Y-55750000D03*
%TD*%
D19*
%TO.C,C1*%
X131500000Y-69225000D03*
X131500000Y-70775000D03*
%TD*%
D10*
%TO.C,R2*%
X127225000Y-64605000D03*
X128875000Y-64605000D03*
%TD*%
M02*
