%TF.GenerationSoftware,KiCad,Pcbnew,(7.0.0-0)*%
%TF.CreationDate,2023-10-06T17:45:21+02:00*%
%TF.ProjectId,annoying_little_shit,616e6e6f-7969-46e6-975f-6c6974746c65,rev?*%
%TF.SameCoordinates,Original*%
%TF.FileFunction,Copper,L1,Top*%
%TF.FilePolarity,Positive*%
%FSLAX46Y46*%
G04 Gerber Fmt 4.6, Leading zero omitted, Abs format (unit mm)*
G04 Created by KiCad (PCBNEW (7.0.0-0)) date 2023-10-06 17:45:21*
%MOMM*%
%LPD*%
G01*
G04 APERTURE LIST*
G04 Aperture macros list*
%AMRoundRect*
0 Rectangle with rounded corners*
0 $1 Rounding radius*
0 $2 $3 $4 $5 $6 $7 $8 $9 X,Y pos of 4 corners*
0 Add a 4 corners polygon primitive as box body*
4,1,4,$2,$3,$4,$5,$6,$7,$8,$9,$2,$3,0*
0 Add four circle primitives for the rounded corners*
1,1,$1+$1,$2,$3*
1,1,$1+$1,$4,$5*
1,1,$1+$1,$6,$7*
1,1,$1+$1,$8,$9*
0 Add four rect primitives between the rounded corners*
20,1,$1+$1,$2,$3,$4,$5,0*
20,1,$1+$1,$4,$5,$6,$7,0*
20,1,$1+$1,$6,$7,$8,$9,0*
20,1,$1+$1,$8,$9,$2,$3,0*%
G04 Aperture macros list end*
%TA.AperFunction,SMDPad,CuDef*%
%ADD10RoundRect,0.200000X-0.200000X-0.275000X0.200000X-0.275000X0.200000X0.275000X-0.200000X0.275000X0*%
%TD*%
%TA.AperFunction,SMDPad,CuDef*%
%ADD11RoundRect,0.200000X0.275000X-0.200000X0.275000X0.200000X-0.275000X0.200000X-0.275000X-0.200000X0*%
%TD*%
%TA.AperFunction,SMDPad,CuDef*%
%ADD12RoundRect,0.225000X-0.225000X-0.250000X0.225000X-0.250000X0.225000X0.250000X-0.225000X0.250000X0*%
%TD*%
%TA.AperFunction,SMDPad,CuDef*%
%ADD13R,1.700000X0.650000*%
%TD*%
%TA.AperFunction,SMDPad,CuDef*%
%ADD14R,1.000000X1.700000*%
%TD*%
%TA.AperFunction,SMDPad,CuDef*%
%ADD15R,3.000000X0.650000*%
%TD*%
%TA.AperFunction,SMDPad,CuDef*%
%ADD16RoundRect,0.150000X0.587500X0.150000X-0.587500X0.150000X-0.587500X-0.150000X0.587500X-0.150000X0*%
%TD*%
%TA.AperFunction,SMDPad,CuDef*%
%ADD17RoundRect,0.150000X-0.150000X0.587500X-0.150000X-0.587500X0.150000X-0.587500X0.150000X0.587500X0*%
%TD*%
%TA.AperFunction,SMDPad,CuDef*%
%ADD18RoundRect,0.250000X0.250000X-0.250000X0.250000X0.250000X-0.250000X0.250000X-0.250000X-0.250000X0*%
%TD*%
%TA.AperFunction,SMDPad,CuDef*%
%ADD19RoundRect,0.225000X-0.250000X0.225000X-0.250000X-0.225000X0.250000X-0.225000X0.250000X0.225000X0*%
%TD*%
%TA.AperFunction,ViaPad*%
%ADD20C,0.700000*%
%TD*%
%TA.AperFunction,ViaPad*%
%ADD21C,0.900000*%
%TD*%
%TA.AperFunction,Conductor*%
%ADD22C,0.300000*%
%TD*%
%TA.AperFunction,Conductor*%
%ADD23C,0.500000*%
%TD*%
G04 APERTURE END LIST*
D10*
%TO.P,R6,1*%
%TO.N,Net-(U1-PB4)*%
X138725000Y-60500000D03*
%TO.P,R6,2*%
%TO.N,Net-(Q2-B)*%
X140375000Y-60500000D03*
%TD*%
D11*
%TO.P,R5,1*%
%TO.N,Net-(U1-PB4)*%
X141550000Y-64150000D03*
%TO.P,R5,2*%
%TO.N,Net-(Q2-B)*%
X141550000Y-62500000D03*
%TD*%
D12*
%TO.P,C2,1*%
%TO.N,+3V0*%
X134475000Y-60500000D03*
%TO.P,C2,2*%
%TO.N,GND*%
X136025000Y-60500000D03*
%TD*%
D13*
%TO.P,U1,1,~{RESET}/PB5*%
%TO.N,Net-(J1-Pin_6)*%
X138699999Y-66999999D03*
%TO.P,U1,2,PB3*%
%TO.N,unconnected-(U1-PB3-Pad2)*%
X138699999Y-65729999D03*
%TO.P,U1,3,PB4*%
%TO.N,Net-(U1-PB4)*%
X138699999Y-64459999D03*
%TO.P,U1,4,GND*%
%TO.N,GND*%
X138699999Y-63189999D03*
%TO.P,U1,5,PB0/MOSI*%
%TO.N,Net-(U1-PB0{slash}MOSI)*%
X131399999Y-63189999D03*
%TO.P,U1,6,PB1/MISO*%
%TO.N,Net-(U1-PB1{slash}MISO)*%
X131399999Y-64459999D03*
%TO.P,U1,7,PB2/SCK*%
%TO.N,Net-(U1-PB2{slash}SCK)*%
X131399999Y-65729999D03*
%TO.P,U1,8,VCC*%
%TO.N,+3V0*%
X131399999Y-66999999D03*
%TD*%
D10*
%TO.P,R1,1*%
%TO.N,Net-(J1-Pin_3)*%
X127225000Y-62595000D03*
%TO.P,R1,2*%
%TO.N,Net-(U1-PB0{slash}MOSI)*%
X128875000Y-62595000D03*
%TD*%
D14*
%TO.P,BZ1,1,N.C*%
%TO.N,unconnected-(BZ1-N.C-Pad1)*%
X128499999Y-59749999D03*
%TO.P,BZ1,2,+*%
%TO.N,+3V0*%
X131999999Y-59799999D03*
%TO.P,BZ1,3,-*%
%TO.N,Net-(BZ1--)*%
X131999999Y-56199999D03*
%TD*%
D15*
%TO.P,J1,1,Pin_1*%
%TO.N,Net-(BT1-+)*%
X120049999Y-58729999D03*
%TO.P,J1,2,Pin_2*%
%TO.N,GND*%
X123049999Y-59999999D03*
%TO.P,J1,3,Pin_3*%
%TO.N,Net-(J1-Pin_3)*%
X120049999Y-61269999D03*
%TO.P,J1,4,Pin_4*%
%TO.N,Net-(J1-Pin_4)*%
X123049999Y-62539999D03*
%TO.P,J1,5,Pin_5*%
%TO.N,Net-(J1-Pin_5)*%
X120049999Y-63809999D03*
%TO.P,J1,6,Pin_6*%
%TO.N,Net-(J1-Pin_6)*%
X123049999Y-65079999D03*
%TD*%
D10*
%TO.P,R4,1*%
%TO.N,Net-(J1-Pin_6)*%
X121725000Y-69000000D03*
%TO.P,R4,2*%
%TO.N,+3V0*%
X123375000Y-69000000D03*
%TD*%
D16*
%TO.P,Q1,1,G*%
%TO.N,GND*%
X127937500Y-71045000D03*
%TO.P,Q1,2,S*%
%TO.N,+3V0*%
X127937500Y-69145000D03*
%TO.P,Q1,3,D*%
%TO.N,Net-(BT1-+)*%
X126062500Y-70095000D03*
%TD*%
D17*
%TO.P,Q2,1,B*%
%TO.N,Net-(Q2-B)*%
X139000000Y-56062500D03*
%TO.P,Q2,2,E*%
%TO.N,GND*%
X137100000Y-56062500D03*
%TO.P,Q2,3,C*%
%TO.N,Net-(BZ1--)*%
X138050000Y-57937500D03*
%TD*%
D10*
%TO.P,R3,1*%
%TO.N,Net-(J1-Pin_5)*%
X127225000Y-66595000D03*
%TO.P,R3,2*%
%TO.N,Net-(U1-PB2{slash}SCK)*%
X128875000Y-66595000D03*
%TD*%
D18*
%TO.P,D1,1,K*%
%TO.N,+3V0*%
X134750000Y-58250000D03*
%TO.P,D1,2,A*%
%TO.N,Net-(BZ1--)*%
X134750000Y-55750000D03*
%TD*%
D19*
%TO.P,C1,1*%
%TO.N,+3V0*%
X131500000Y-69225000D03*
%TO.P,C1,2*%
%TO.N,GND*%
X131500000Y-70775000D03*
%TD*%
D10*
%TO.P,R2,1*%
%TO.N,Net-(J1-Pin_4)*%
X127225000Y-64605000D03*
%TO.P,R2,2*%
%TO.N,Net-(U1-PB1{slash}MISO)*%
X128875000Y-64605000D03*
%TD*%
D20*
%TO.N,Net-(BT1-+)*%
X123500000Y-71000000D03*
X117550000Y-59000000D03*
D21*
%TO.N,GND*%
X139000000Y-54500000D03*
X123000000Y-54500000D03*
X135500000Y-71500000D03*
X140500000Y-66500000D03*
X133500000Y-52500000D03*
X128000000Y-52500000D03*
X126000000Y-71500000D03*
X121799500Y-66565332D03*
%TD*%
D22*
%TO.N,Net-(BT1-+)*%
X117820000Y-58730000D02*
X120550000Y-58730000D01*
X123500000Y-71000000D02*
X124405000Y-70095000D01*
X124405000Y-70095000D02*
X126612500Y-70095000D01*
X117820000Y-58730000D02*
X117550000Y-59000000D01*
%TO.N,Net-(J1-Pin_3)*%
X125900000Y-61270000D02*
X120050000Y-61270000D01*
X127225000Y-62595000D02*
X125900000Y-61270000D01*
%TO.N,Net-(U1-PB0{slash}MOSI)*%
X129470000Y-63190000D02*
X131400000Y-63190000D01*
X128875000Y-62595000D02*
X129470000Y-63190000D01*
%TO.N,Net-(J1-Pin_4)*%
X127225000Y-64605000D02*
X125160000Y-62540000D01*
X125160000Y-62540000D02*
X123050000Y-62540000D01*
%TO.N,Net-(U1-PB1{slash}MISO)*%
X128875000Y-64605000D02*
X131255000Y-64605000D01*
X131255000Y-64605000D02*
X131400000Y-64460000D01*
%TO.N,Net-(J1-Pin_5)*%
X124805000Y-63810000D02*
X127225000Y-66230000D01*
X127225000Y-66230000D02*
X127225000Y-66595000D01*
X120550000Y-63810000D02*
X124805000Y-63810000D01*
%TO.N,Net-(U1-PB2{slash}SCK)*%
X129740000Y-65730000D02*
X131400000Y-65730000D01*
X128875000Y-66595000D02*
X129740000Y-65730000D01*
%TO.N,Net-(U1-PB4)*%
X140050000Y-64000000D02*
X141400000Y-64000000D01*
X139590000Y-64460000D02*
X138700000Y-64460000D01*
X141400000Y-64000000D02*
X141550000Y-64150000D01*
X140050000Y-64000000D02*
X139590000Y-64460000D01*
X138725000Y-60500000D02*
X138725000Y-60675000D01*
X140050000Y-62000000D02*
X140050000Y-64000000D01*
X138725000Y-60675000D02*
X140050000Y-62000000D01*
D23*
%TO.N,Net-(BZ1--)*%
X137050000Y-54000000D02*
X138050000Y-55000000D01*
X135550000Y-54000000D02*
X137050000Y-54000000D01*
X134750000Y-54800000D02*
X135550000Y-54000000D01*
X132450000Y-55750000D02*
X134750000Y-55750000D01*
X134750000Y-55750000D02*
X134750000Y-54800000D01*
X132000000Y-56200000D02*
X132450000Y-55750000D01*
X138050000Y-55000000D02*
X138050000Y-57937500D01*
D22*
%TO.N,Net-(J1-Pin_6)*%
X122000000Y-69275000D02*
X122000000Y-71000000D01*
X124000000Y-73000000D02*
X138050000Y-73000000D01*
X138550000Y-72500000D02*
X138550000Y-67150000D01*
X123050000Y-65080000D02*
X121920000Y-65080000D01*
X121000000Y-66000000D02*
X121000000Y-68275000D01*
X138550000Y-67150000D02*
X138700000Y-67000000D01*
X122000000Y-71000000D02*
X124000000Y-73000000D01*
X121725000Y-69000000D02*
X122000000Y-69275000D01*
X138050000Y-73000000D02*
X138550000Y-72500000D01*
X121920000Y-65080000D02*
X121000000Y-66000000D01*
X121000000Y-68275000D02*
X121725000Y-69000000D01*
D23*
%TO.N,+3V0*%
X133050000Y-58750000D02*
X134750000Y-58750000D01*
X132275000Y-69000000D02*
X132050000Y-69225000D01*
X134475000Y-68075000D02*
X133550000Y-69000000D01*
X132700000Y-60500000D02*
X132000000Y-59800000D01*
X134475000Y-60500000D02*
X134475000Y-68075000D01*
X132050000Y-69225000D02*
X128567500Y-69225000D01*
D22*
X123375000Y-69000000D02*
X128342500Y-69000000D01*
D23*
X133550000Y-69000000D02*
X132275000Y-69000000D01*
D22*
X128342500Y-69000000D02*
X128487500Y-69145000D01*
D23*
X132050000Y-69225000D02*
X132050000Y-67650000D01*
X128567500Y-69225000D02*
X128487500Y-69145000D01*
X134475000Y-60500000D02*
X132700000Y-60500000D01*
X132050000Y-67650000D02*
X131400000Y-67000000D01*
X132000000Y-59800000D02*
X133050000Y-58750000D01*
D22*
%TO.N,Net-(Q2-B)*%
X140375000Y-60500000D02*
X139000000Y-59125000D01*
X141550000Y-62500000D02*
X141550000Y-61675000D01*
X139000000Y-59125000D02*
X139000000Y-56062500D01*
X141550000Y-61675000D02*
X140375000Y-60500000D01*
%TD*%
%TA.AperFunction,Conductor*%
%TO.N,GND*%
G36*
X125212817Y-65156876D02*
G01*
X125262180Y-65187126D01*
X126288181Y-66213126D01*
X126315061Y-66253354D01*
X126324500Y-66300807D01*
X126324500Y-66926616D01*
X126330914Y-66997196D01*
X126332862Y-67003448D01*
X126332864Y-67003457D01*
X126372452Y-67130500D01*
X126381522Y-67159606D01*
X126469528Y-67305185D01*
X126589815Y-67425472D01*
X126735394Y-67513478D01*
X126854859Y-67550704D01*
X126891542Y-67562135D01*
X126891544Y-67562135D01*
X126897804Y-67564086D01*
X126968384Y-67570500D01*
X127478797Y-67570500D01*
X127481616Y-67570500D01*
X127552196Y-67564086D01*
X127714606Y-67513478D01*
X127860185Y-67425472D01*
X127962319Y-67323338D01*
X128017906Y-67291244D01*
X128082094Y-67291244D01*
X128137681Y-67323338D01*
X128239815Y-67425472D01*
X128385394Y-67513478D01*
X128504859Y-67550704D01*
X128541542Y-67562135D01*
X128541544Y-67562135D01*
X128547804Y-67564086D01*
X128618384Y-67570500D01*
X129128797Y-67570500D01*
X129131616Y-67570500D01*
X129202196Y-67564086D01*
X129364606Y-67513478D01*
X129510185Y-67425472D01*
X129630472Y-67305185D01*
X129718478Y-67159606D01*
X129769086Y-66997196D01*
X129775500Y-66926616D01*
X129775500Y-66665807D01*
X129784938Y-66618355D01*
X129811814Y-66578130D01*
X129837822Y-66552122D01*
X129887180Y-66521876D01*
X129944896Y-66517332D01*
X129998385Y-66539487D01*
X130035985Y-66583511D01*
X130049500Y-66639806D01*
X130049500Y-67369560D01*
X130049500Y-67369578D01*
X130049501Y-67372872D01*
X130049853Y-67376150D01*
X130049854Y-67376161D01*
X130055079Y-67424768D01*
X130055080Y-67424773D01*
X130055909Y-67432483D01*
X130058619Y-67439749D01*
X130058620Y-67439753D01*
X130092217Y-67529831D01*
X130106204Y-67567331D01*
X130111518Y-67574430D01*
X130111519Y-67574431D01*
X130147601Y-67622631D01*
X130192454Y-67682546D01*
X130307669Y-67768796D01*
X130442517Y-67819091D01*
X130502127Y-67825500D01*
X131112769Y-67825499D01*
X131160222Y-67834938D01*
X131200450Y-67861818D01*
X131263181Y-67924549D01*
X131290061Y-67964777D01*
X131299500Y-68012230D01*
X131299500Y-68152528D01*
X131284929Y-68210849D01*
X131244639Y-68255464D01*
X131188100Y-68275885D01*
X131170724Y-68277660D01*
X131109028Y-68283962D01*
X131109019Y-68283963D01*
X131102292Y-68284651D01*
X131095870Y-68286778D01*
X131095865Y-68286780D01*
X130948158Y-68335725D01*
X130948154Y-68335726D01*
X130941303Y-68337997D01*
X130935159Y-68341786D01*
X130935154Y-68341789D01*
X130803107Y-68423237D01*
X130803101Y-68423241D01*
X130796956Y-68427032D01*
X130791849Y-68432138D01*
X130791845Y-68432142D01*
X130785807Y-68438181D01*
X130745579Y-68465061D01*
X130698126Y-68474500D01*
X128956697Y-68474500D01*
X128893576Y-68457232D01*
X128861362Y-68438181D01*
X128848065Y-68430317D01*
X128792113Y-68397227D01*
X128792111Y-68397226D01*
X128785398Y-68393256D01*
X128731404Y-68377569D01*
X128633657Y-68349170D01*
X128633650Y-68349168D01*
X128627569Y-68347402D01*
X128621258Y-68346905D01*
X128621251Y-68346904D01*
X128593128Y-68344691D01*
X128593114Y-68344690D01*
X128590694Y-68344500D01*
X127284306Y-68344500D01*
X127281886Y-68344690D01*
X127281871Y-68344691D01*
X127253745Y-68346905D01*
X127253744Y-68346905D01*
X127247431Y-68347402D01*
X127245601Y-68347933D01*
X127228307Y-68349500D01*
X124236460Y-68349500D01*
X124182178Y-68336988D01*
X124138851Y-68301975D01*
X124134350Y-68296231D01*
X124130472Y-68289815D01*
X124010185Y-68169528D01*
X123950814Y-68133637D01*
X123871021Y-68085400D01*
X123871020Y-68085399D01*
X123864606Y-68081522D01*
X123814373Y-68065869D01*
X123708457Y-68032864D01*
X123708448Y-68032862D01*
X123702196Y-68030914D01*
X123695662Y-68030320D01*
X123695661Y-68030320D01*
X123634425Y-68024755D01*
X123634419Y-68024754D01*
X123631616Y-68024500D01*
X123118384Y-68024500D01*
X123115581Y-68024754D01*
X123115574Y-68024755D01*
X123054338Y-68030320D01*
X123054335Y-68030320D01*
X123047804Y-68030914D01*
X123041553Y-68032861D01*
X123041542Y-68032864D01*
X122892550Y-68079292D01*
X122885394Y-68081522D01*
X122878982Y-68085398D01*
X122878978Y-68085400D01*
X122746232Y-68165648D01*
X122746227Y-68165651D01*
X122739815Y-68169528D01*
X122734515Y-68174827D01*
X122734511Y-68174831D01*
X122637681Y-68271662D01*
X122582094Y-68303756D01*
X122517906Y-68303756D01*
X122462319Y-68271662D01*
X122365488Y-68174831D01*
X122365487Y-68174830D01*
X122360185Y-68169528D01*
X122300814Y-68133637D01*
X122221021Y-68085400D01*
X122221020Y-68085399D01*
X122214606Y-68081522D01*
X122164373Y-68065869D01*
X122058457Y-68032864D01*
X122058448Y-68032862D01*
X122052196Y-68030914D01*
X122045662Y-68030320D01*
X122045661Y-68030320D01*
X121984425Y-68024755D01*
X121984419Y-68024754D01*
X121981616Y-68024500D01*
X121978797Y-68024500D01*
X121774500Y-68024500D01*
X121712500Y-68007887D01*
X121667113Y-67962500D01*
X121650500Y-67900500D01*
X121650500Y-66320808D01*
X121659939Y-66273355D01*
X121686819Y-66233127D01*
X121978127Y-65941818D01*
X122018355Y-65914938D01*
X122065808Y-65905499D01*
X124594561Y-65905499D01*
X124597872Y-65905499D01*
X124657483Y-65899091D01*
X124792331Y-65848796D01*
X124907546Y-65762546D01*
X124993796Y-65647331D01*
X125044091Y-65512483D01*
X125050500Y-65452873D01*
X125050499Y-65274805D01*
X125064014Y-65218513D01*
X125101613Y-65174489D01*
X125155101Y-65152334D01*
X125212817Y-65156876D01*
G37*
%TD.AperFunction*%
%TA.AperFunction,Conductor*%
G36*
X141413042Y-51709939D02*
G01*
X141453270Y-51736819D01*
X147263181Y-57546731D01*
X147290061Y-57586959D01*
X147299500Y-57634412D01*
X147299500Y-65865588D01*
X147290061Y-65913041D01*
X147263181Y-65953269D01*
X138953270Y-74263181D01*
X138913042Y-74290061D01*
X138865589Y-74299500D01*
X131022590Y-74299500D01*
X123134412Y-74299500D01*
X123086959Y-74290061D01*
X123046731Y-74263181D01*
X114736819Y-65953270D01*
X114709939Y-65913042D01*
X114700500Y-65865589D01*
X114700500Y-64179578D01*
X118049500Y-64179578D01*
X118049501Y-64182872D01*
X118049853Y-64186150D01*
X118049854Y-64186161D01*
X118055079Y-64234768D01*
X118055080Y-64234773D01*
X118055909Y-64242483D01*
X118058619Y-64249749D01*
X118058620Y-64249753D01*
X118092217Y-64339831D01*
X118106204Y-64377331D01*
X118111518Y-64384430D01*
X118111519Y-64384431D01*
X118130229Y-64409425D01*
X118192454Y-64492546D01*
X118307669Y-64578796D01*
X118442517Y-64629091D01*
X118502127Y-64635500D01*
X120925500Y-64635499D01*
X120987500Y-64652112D01*
X121032887Y-64697499D01*
X121049500Y-64759499D01*
X121049500Y-64979191D01*
X121040061Y-65026644D01*
X121013181Y-65066872D01*
X120597354Y-65482698D01*
X120588719Y-65490556D01*
X120588639Y-65490621D01*
X120582060Y-65494798D01*
X120576727Y-65500476D01*
X120576722Y-65500481D01*
X120534132Y-65545834D01*
X120531428Y-65548625D01*
X120511089Y-65568965D01*
X120508712Y-65572028D01*
X120508688Y-65572056D01*
X120508363Y-65572476D01*
X120500807Y-65581321D01*
X120474892Y-65608919D01*
X120474887Y-65608924D01*
X120469552Y-65614607D01*
X120465797Y-65621436D01*
X120465789Y-65621448D01*
X120459321Y-65633213D01*
X120448647Y-65649464D01*
X120444795Y-65654431D01*
X120435638Y-65666236D01*
X120432541Y-65673391D01*
X120432540Y-65673394D01*
X120417506Y-65708133D01*
X120412370Y-65718616D01*
X120394130Y-65751796D01*
X120394127Y-65751802D01*
X120390373Y-65758632D01*
X120388434Y-65766180D01*
X120388431Y-65766190D01*
X120385089Y-65779204D01*
X120378792Y-65797596D01*
X120373464Y-65809910D01*
X120373462Y-65809916D01*
X120370365Y-65817074D01*
X120369145Y-65824772D01*
X120369144Y-65824778D01*
X120363223Y-65862162D01*
X120360855Y-65873593D01*
X120349500Y-65917823D01*
X120349500Y-65925625D01*
X120349500Y-65939046D01*
X120347973Y-65958445D01*
X120345873Y-65971697D01*
X120345872Y-65971704D01*
X120344653Y-65979405D01*
X120345387Y-65987170D01*
X120345387Y-65987172D01*
X120348950Y-66024860D01*
X120349500Y-66036530D01*
X120349500Y-68193927D01*
X120348950Y-68205596D01*
X120348941Y-68205682D01*
X120347240Y-68213296D01*
X120347485Y-68221092D01*
X120347485Y-68221093D01*
X120349439Y-68283262D01*
X120349500Y-68287157D01*
X120349500Y-68315925D01*
X120349987Y-68319785D01*
X120349989Y-68319808D01*
X120350054Y-68320320D01*
X120350968Y-68331941D01*
X120352157Y-68369775D01*
X120352158Y-68369782D01*
X120352403Y-68377569D01*
X120354577Y-68385055D01*
X120354578Y-68385056D01*
X120358323Y-68397947D01*
X120362268Y-68416997D01*
X120363950Y-68430317D01*
X120363951Y-68430324D01*
X120364929Y-68438058D01*
X120367800Y-68445309D01*
X120367802Y-68445317D01*
X120381737Y-68480515D01*
X120385520Y-68491562D01*
X120398256Y-68535398D01*
X120402225Y-68542109D01*
X120402228Y-68542116D01*
X120409062Y-68553672D01*
X120417620Y-68571141D01*
X120420073Y-68577335D01*
X120425432Y-68590871D01*
X120430016Y-68597180D01*
X120452267Y-68627808D01*
X120458677Y-68637567D01*
X120474615Y-68664516D01*
X120481919Y-68676865D01*
X120496921Y-68691866D01*
X120509561Y-68706665D01*
X120522037Y-68723837D01*
X120528046Y-68728808D01*
X120528048Y-68728810D01*
X120557214Y-68752937D01*
X120565856Y-68760801D01*
X120788181Y-68983127D01*
X120815061Y-69023355D01*
X120824500Y-69070808D01*
X120824500Y-69331616D01*
X120830914Y-69402196D01*
X120832862Y-69408448D01*
X120832864Y-69408457D01*
X120868152Y-69521700D01*
X120881522Y-69564606D01*
X120885399Y-69571020D01*
X120885400Y-69571021D01*
X120954190Y-69684814D01*
X120969528Y-69710185D01*
X121089815Y-69830472D01*
X121235394Y-69918478D01*
X121255991Y-69924896D01*
X121262389Y-69926890D01*
X121307727Y-69952460D01*
X121338575Y-69994384D01*
X121349500Y-70045276D01*
X121349500Y-70918927D01*
X121348950Y-70930596D01*
X121348941Y-70930682D01*
X121347240Y-70938296D01*
X121347485Y-70946092D01*
X121347485Y-70946093D01*
X121349439Y-71008262D01*
X121349500Y-71012157D01*
X121349500Y-71040925D01*
X121349987Y-71044785D01*
X121349989Y-71044808D01*
X121350054Y-71045320D01*
X121350968Y-71056941D01*
X121352157Y-71094775D01*
X121352158Y-71094782D01*
X121352403Y-71102569D01*
X121354577Y-71110055D01*
X121354578Y-71110056D01*
X121358323Y-71122947D01*
X121362268Y-71141997D01*
X121363950Y-71155317D01*
X121363951Y-71155324D01*
X121364929Y-71163058D01*
X121367800Y-71170309D01*
X121367802Y-71170317D01*
X121381737Y-71205515D01*
X121385520Y-71216562D01*
X121398256Y-71260398D01*
X121402225Y-71267109D01*
X121402228Y-71267116D01*
X121409062Y-71278672D01*
X121417620Y-71296141D01*
X121421435Y-71305776D01*
X121425432Y-71315871D01*
X121430016Y-71322180D01*
X121452267Y-71352808D01*
X121458677Y-71362567D01*
X121477945Y-71395146D01*
X121481919Y-71401865D01*
X121487437Y-71407383D01*
X121487438Y-71407384D01*
X121496926Y-71416872D01*
X121509563Y-71431668D01*
X121517449Y-71442523D01*
X121517451Y-71442525D01*
X121522037Y-71448837D01*
X121528047Y-71453808D01*
X121528049Y-71453811D01*
X121557212Y-71477936D01*
X121565853Y-71485799D01*
X123482694Y-73402640D01*
X123490554Y-73411277D01*
X123490619Y-73411356D01*
X123494798Y-73417940D01*
X123500481Y-73423277D01*
X123500483Y-73423279D01*
X123545832Y-73465864D01*
X123548628Y-73468574D01*
X123568965Y-73488911D01*
X123572036Y-73491293D01*
X123572437Y-73491604D01*
X123581323Y-73499192D01*
X123614607Y-73530448D01*
X123621438Y-73534203D01*
X123621439Y-73534204D01*
X123633204Y-73540672D01*
X123649469Y-73551356D01*
X123660069Y-73559579D01*
X123660072Y-73559581D01*
X123666236Y-73564362D01*
X123708128Y-73582490D01*
X123718620Y-73587630D01*
X123758632Y-73609627D01*
X123777526Y-73614478D01*
X123779193Y-73614906D01*
X123797594Y-73621205D01*
X123817074Y-73629635D01*
X123862158Y-73636775D01*
X123873585Y-73639141D01*
X123917823Y-73650500D01*
X123939052Y-73650500D01*
X123958449Y-73652026D01*
X123979405Y-73655346D01*
X124019045Y-73651598D01*
X124024853Y-73651050D01*
X124036522Y-73650500D01*
X137968927Y-73650500D01*
X137980596Y-73651050D01*
X137980681Y-73651058D01*
X137988296Y-73652760D01*
X138058262Y-73650560D01*
X138062157Y-73650500D01*
X138087025Y-73650500D01*
X138090925Y-73650500D01*
X138095294Y-73649947D01*
X138106939Y-73649030D01*
X138152569Y-73647597D01*
X138172951Y-73641674D01*
X138191991Y-73637731D01*
X138213058Y-73635071D01*
X138230306Y-73628241D01*
X138255508Y-73618264D01*
X138266557Y-73614480D01*
X138310398Y-73601744D01*
X138328660Y-73590942D01*
X138346136Y-73582380D01*
X138365871Y-73574568D01*
X138402816Y-73547725D01*
X138412558Y-73541326D01*
X138451865Y-73518081D01*
X138466872Y-73503073D01*
X138481660Y-73490441D01*
X138498837Y-73477963D01*
X138527948Y-73442772D01*
X138535791Y-73434153D01*
X138952649Y-73017294D01*
X138961284Y-73009438D01*
X138961349Y-73009383D01*
X138967940Y-73005202D01*
X139015911Y-72954117D01*
X139018560Y-72951384D01*
X139038911Y-72931034D01*
X139041612Y-72927550D01*
X139049194Y-72918674D01*
X139080448Y-72885393D01*
X139090674Y-72866789D01*
X139101356Y-72850530D01*
X139114363Y-72833763D01*
X139132498Y-72791852D01*
X139137633Y-72781373D01*
X139159627Y-72741368D01*
X139164903Y-72720817D01*
X139171211Y-72702393D01*
X139176537Y-72690086D01*
X139179636Y-72682926D01*
X139186778Y-72637824D01*
X139189148Y-72626387D01*
X139198559Y-72589735D01*
X139200500Y-72582177D01*
X139200500Y-72560954D01*
X139202027Y-72541556D01*
X139204126Y-72528303D01*
X139205347Y-72520595D01*
X139201050Y-72475140D01*
X139200500Y-72463470D01*
X139200500Y-67949499D01*
X139217113Y-67887499D01*
X139262500Y-67842112D01*
X139324500Y-67825499D01*
X139594561Y-67825499D01*
X139597872Y-67825499D01*
X139657483Y-67819091D01*
X139792331Y-67768796D01*
X139907546Y-67682546D01*
X139993796Y-67567331D01*
X140044091Y-67432483D01*
X140050500Y-67372873D01*
X140050499Y-66627128D01*
X140044091Y-66567517D01*
X139993796Y-66432669D01*
X139988482Y-66425570D01*
X139987857Y-66424426D01*
X139972689Y-66364997D01*
X139987859Y-66305568D01*
X139988477Y-66304435D01*
X139993796Y-66297331D01*
X140044091Y-66162483D01*
X140050500Y-66102873D01*
X140050499Y-65357128D01*
X140044091Y-65297517D01*
X140031172Y-65262880D01*
X139996895Y-65170977D01*
X139996893Y-65170975D01*
X139993796Y-65162669D01*
X139988482Y-65155570D01*
X139987857Y-65154426D01*
X139972689Y-65094998D01*
X139987858Y-65035570D01*
X139988477Y-65034435D01*
X139993796Y-65027331D01*
X140011444Y-64980010D01*
X140039207Y-64938271D01*
X140038836Y-64937964D01*
X140038837Y-64937963D01*
X140067947Y-64902772D01*
X140075780Y-64894164D01*
X140283129Y-64686816D01*
X140323356Y-64659939D01*
X140370808Y-64650500D01*
X140568172Y-64650500D01*
X140629088Y-64666494D01*
X140674289Y-64710350D01*
X140715648Y-64778768D01*
X140715651Y-64778772D01*
X140719528Y-64785185D01*
X140839815Y-64905472D01*
X140985394Y-64993478D01*
X141104374Y-65030553D01*
X141141542Y-65042135D01*
X141141544Y-65042135D01*
X141147804Y-65044086D01*
X141218384Y-65050500D01*
X141878797Y-65050500D01*
X141881616Y-65050500D01*
X141952196Y-65044086D01*
X142114606Y-64993478D01*
X142260185Y-64905472D01*
X142380472Y-64785185D01*
X142468478Y-64639606D01*
X142519086Y-64477196D01*
X142525500Y-64406616D01*
X142525500Y-63893384D01*
X142519086Y-63822804D01*
X142468478Y-63660394D01*
X142380472Y-63514815D01*
X142278338Y-63412681D01*
X142246244Y-63357094D01*
X142246244Y-63292906D01*
X142278338Y-63237319D01*
X142325485Y-63190172D01*
X142380472Y-63135185D01*
X142468478Y-62989606D01*
X142519086Y-62827196D01*
X142525500Y-62756616D01*
X142525500Y-62243384D01*
X142519086Y-62172804D01*
X142513014Y-62153319D01*
X142498742Y-62107517D01*
X142468478Y-62010394D01*
X142380472Y-61864815D01*
X142260185Y-61744528D01*
X142253769Y-61740649D01*
X142248025Y-61736149D01*
X142213012Y-61692822D01*
X142201259Y-61641834D01*
X142200745Y-61641867D01*
X142200548Y-61638751D01*
X142200500Y-61638540D01*
X142200500Y-61637976D01*
X142200500Y-61634075D01*
X142199948Y-61629709D01*
X142199030Y-61618055D01*
X142198779Y-61610061D01*
X142197597Y-61572431D01*
X142191673Y-61552043D01*
X142187732Y-61533009D01*
X142185071Y-61511942D01*
X142168263Y-61469491D01*
X142164480Y-61458441D01*
X142153921Y-61422095D01*
X142153920Y-61422093D01*
X142151744Y-61414602D01*
X142140940Y-61396334D01*
X142132378Y-61378856D01*
X142127439Y-61366381D01*
X142124568Y-61359129D01*
X142097737Y-61322198D01*
X142091324Y-61312436D01*
X142072052Y-61279849D01*
X142072050Y-61279847D01*
X142068081Y-61273135D01*
X142053074Y-61258127D01*
X142040436Y-61243331D01*
X142032545Y-61232470D01*
X142027963Y-61226163D01*
X142017196Y-61217256D01*
X141992780Y-61197057D01*
X141984140Y-61189194D01*
X141311819Y-60516873D01*
X141284939Y-60476645D01*
X141275500Y-60429192D01*
X141275500Y-60171203D01*
X141275500Y-60168384D01*
X141269086Y-60097804D01*
X141218478Y-59935394D01*
X141130472Y-59789815D01*
X141010185Y-59669528D01*
X140999085Y-59662818D01*
X140871021Y-59585400D01*
X140871020Y-59585399D01*
X140864606Y-59581522D01*
X140834408Y-59572112D01*
X140708457Y-59532864D01*
X140708448Y-59532862D01*
X140702196Y-59530914D01*
X140695662Y-59530320D01*
X140695661Y-59530320D01*
X140634425Y-59524755D01*
X140634419Y-59524754D01*
X140631616Y-59524500D01*
X140628797Y-59524500D01*
X140370808Y-59524500D01*
X140323355Y-59515061D01*
X140283127Y-59488181D01*
X139686819Y-58891873D01*
X139659939Y-58851645D01*
X139650500Y-58804192D01*
X139650500Y-57115390D01*
X139657174Y-57075258D01*
X139669371Y-57052628D01*
X139668081Y-57051865D01*
X139672237Y-57044838D01*
X139751744Y-56910398D01*
X139797598Y-56752569D01*
X139800500Y-56715694D01*
X139800500Y-55409306D01*
X139797598Y-55372431D01*
X139751744Y-55214602D01*
X139668081Y-55073135D01*
X139551865Y-54956919D01*
X139545151Y-54952948D01*
X139545148Y-54952946D01*
X139417113Y-54877227D01*
X139417111Y-54877226D01*
X139410398Y-54873256D01*
X139402905Y-54871079D01*
X139258657Y-54829170D01*
X139258650Y-54829168D01*
X139252569Y-54827402D01*
X139246258Y-54826905D01*
X139246251Y-54826904D01*
X139218128Y-54824691D01*
X139218114Y-54824690D01*
X139215694Y-54824500D01*
X139213249Y-54824500D01*
X138872017Y-54824500D01*
X138821802Y-54813877D01*
X138780190Y-54783829D01*
X138754311Y-54739504D01*
X138752535Y-54734144D01*
X138734814Y-54680666D01*
X138731019Y-54674513D01*
X138729564Y-54671393D01*
X138729430Y-54671069D01*
X138729259Y-54670763D01*
X138727710Y-54667680D01*
X138725237Y-54660883D01*
X138684001Y-54598188D01*
X138682086Y-54595181D01*
X138646504Y-54537492D01*
X138646501Y-54537489D01*
X138642712Y-54531345D01*
X138637605Y-54526238D01*
X138635463Y-54523529D01*
X138635257Y-54523244D01*
X138635027Y-54522993D01*
X138632796Y-54520335D01*
X138628830Y-54514304D01*
X138574273Y-54462832D01*
X138571686Y-54460319D01*
X137625729Y-53514361D01*
X137613947Y-53500727D01*
X137603925Y-53487265D01*
X137603921Y-53487261D01*
X137599610Y-53481470D01*
X137592763Y-53475725D01*
X137561666Y-53449631D01*
X137553691Y-53442323D01*
X137552329Y-53440961D01*
X137552328Y-53440960D01*
X137549777Y-53438409D01*
X137546953Y-53436176D01*
X137546944Y-53436168D01*
X137525445Y-53419170D01*
X137522674Y-53416913D01*
X137465214Y-53368698D01*
X137458760Y-53365456D01*
X137455859Y-53363548D01*
X137455588Y-53363352D01*
X137455292Y-53363187D01*
X137452339Y-53361366D01*
X137446677Y-53356889D01*
X137440134Y-53353838D01*
X137440131Y-53353836D01*
X137378692Y-53325186D01*
X137375446Y-53323615D01*
X137370205Y-53320983D01*
X137308433Y-53289960D01*
X137301409Y-53288295D01*
X137298151Y-53287109D01*
X137297832Y-53286977D01*
X137297504Y-53286884D01*
X137294218Y-53285795D01*
X137287673Y-53282743D01*
X137280604Y-53281283D01*
X137280600Y-53281282D01*
X137214212Y-53267574D01*
X137210691Y-53266794D01*
X137144741Y-53251163D01*
X137144734Y-53251162D01*
X137137721Y-53249500D01*
X137130510Y-53249500D01*
X137127061Y-53249097D01*
X137126727Y-53249043D01*
X137126374Y-53249028D01*
X137122929Y-53248726D01*
X137115856Y-53247266D01*
X137108638Y-53247476D01*
X137040870Y-53249448D01*
X137037263Y-53249500D01*
X135613707Y-53249500D01*
X135595736Y-53248191D01*
X135579126Y-53245758D01*
X135579124Y-53245757D01*
X135571977Y-53244711D01*
X135564784Y-53245340D01*
X135564778Y-53245340D01*
X135522631Y-53249028D01*
X135511824Y-53249500D01*
X135506291Y-53249500D01*
X135502730Y-53249916D01*
X135502715Y-53249917D01*
X135475501Y-53253098D01*
X135471916Y-53253464D01*
X135404393Y-53259371D01*
X135404385Y-53259372D01*
X135397203Y-53260001D01*
X135390352Y-53262270D01*
X135386935Y-53262976D01*
X135386619Y-53263027D01*
X135386295Y-53263119D01*
X135382913Y-53263920D01*
X135375745Y-53264759D01*
X135368968Y-53267225D01*
X135368957Y-53267228D01*
X135305231Y-53290421D01*
X135301831Y-53291603D01*
X135271863Y-53301533D01*
X135230666Y-53315186D01*
X135224528Y-53318971D01*
X135221367Y-53320445D01*
X135221061Y-53320571D01*
X135220781Y-53320728D01*
X135217659Y-53322296D01*
X135210883Y-53324763D01*
X135204855Y-53328727D01*
X135204854Y-53328728D01*
X135148220Y-53365976D01*
X135145182Y-53367911D01*
X135087492Y-53403495D01*
X135087483Y-53403501D01*
X135081345Y-53407288D01*
X135076243Y-53412389D01*
X135073504Y-53414555D01*
X135073239Y-53414745D01*
X135072995Y-53414970D01*
X135070331Y-53417205D01*
X135064304Y-53421170D01*
X135059355Y-53426414D01*
X135059353Y-53426417D01*
X135012833Y-53475725D01*
X135010321Y-53478310D01*
X134264358Y-54224272D01*
X134250730Y-54236050D01*
X134237263Y-54246076D01*
X134237257Y-54246081D01*
X134231470Y-54250390D01*
X134226832Y-54255916D01*
X134226830Y-54255919D01*
X134199633Y-54288330D01*
X134192350Y-54296280D01*
X134190969Y-54297661D01*
X134190955Y-54297676D01*
X134188409Y-54300223D01*
X134186173Y-54303050D01*
X134186171Y-54303053D01*
X134169176Y-54324546D01*
X134166902Y-54327337D01*
X134123339Y-54379254D01*
X134123335Y-54379258D01*
X134118698Y-54384786D01*
X134115460Y-54391230D01*
X134113537Y-54394155D01*
X134113352Y-54394411D01*
X134113192Y-54394698D01*
X134111363Y-54397663D01*
X134106889Y-54403323D01*
X134103839Y-54409862D01*
X134103838Y-54409865D01*
X134075192Y-54471294D01*
X134073623Y-54474536D01*
X134043196Y-54535122D01*
X134043194Y-54535127D01*
X134039960Y-54541567D01*
X134038296Y-54548584D01*
X134037109Y-54551847D01*
X134036977Y-54552163D01*
X134036888Y-54552480D01*
X134035791Y-54555787D01*
X134032743Y-54562327D01*
X134031284Y-54569390D01*
X134031283Y-54569395D01*
X134017574Y-54635787D01*
X134016794Y-54639306D01*
X134001164Y-54705255D01*
X134001163Y-54705260D01*
X133999500Y-54712279D01*
X133999500Y-54719491D01*
X133999097Y-54722939D01*
X133999043Y-54723273D01*
X133999028Y-54723626D01*
X133998726Y-54727070D01*
X133997266Y-54734144D01*
X133997476Y-54741360D01*
X133997476Y-54741361D01*
X133999448Y-54809130D01*
X133999500Y-54812737D01*
X133999500Y-54875500D01*
X133982887Y-54937500D01*
X133937500Y-54982887D01*
X133875500Y-54999500D01*
X132908230Y-54999500D01*
X132869070Y-54993154D01*
X132833919Y-54974767D01*
X132817448Y-54962437D01*
X132742331Y-54906204D01*
X132607483Y-54855909D01*
X132599770Y-54855079D01*
X132599767Y-54855079D01*
X132551180Y-54849855D01*
X132551169Y-54849854D01*
X132547873Y-54849500D01*
X132544550Y-54849500D01*
X131455439Y-54849500D01*
X131455420Y-54849500D01*
X131452128Y-54849501D01*
X131448850Y-54849853D01*
X131448838Y-54849854D01*
X131400231Y-54855079D01*
X131400225Y-54855080D01*
X131392517Y-54855909D01*
X131385252Y-54858618D01*
X131385246Y-54858620D01*
X131265980Y-54903104D01*
X131265978Y-54903104D01*
X131257669Y-54906204D01*
X131250572Y-54911516D01*
X131250568Y-54911519D01*
X131149550Y-54987141D01*
X131149546Y-54987144D01*
X131142454Y-54992454D01*
X131137144Y-54999546D01*
X131137141Y-54999550D01*
X131061519Y-55100568D01*
X131061516Y-55100572D01*
X131056204Y-55107669D01*
X131053104Y-55115978D01*
X131053104Y-55115980D01*
X131008620Y-55235247D01*
X131008619Y-55235250D01*
X131005909Y-55242517D01*
X131005079Y-55250227D01*
X131005079Y-55250232D01*
X130999855Y-55298819D01*
X130999854Y-55298831D01*
X130999500Y-55302127D01*
X130999500Y-55305448D01*
X130999500Y-55305449D01*
X130999500Y-57094560D01*
X130999500Y-57094578D01*
X130999501Y-57097872D01*
X130999853Y-57101150D01*
X130999854Y-57101161D01*
X131005079Y-57149768D01*
X131005080Y-57149773D01*
X131005909Y-57157483D01*
X131008619Y-57164749D01*
X131008620Y-57164753D01*
X131037186Y-57241342D01*
X131056204Y-57292331D01*
X131061518Y-57299430D01*
X131061519Y-57299431D01*
X131111489Y-57366183D01*
X131142454Y-57407546D01*
X131257669Y-57493796D01*
X131392517Y-57544091D01*
X131452127Y-57550500D01*
X132547872Y-57550499D01*
X132607483Y-57544091D01*
X132742331Y-57493796D01*
X132857546Y-57407546D01*
X132943796Y-57292331D01*
X132994091Y-57157483D01*
X133000500Y-57097873D01*
X133000500Y-56624500D01*
X133017113Y-56562500D01*
X133062500Y-56517113D01*
X133124500Y-56500500D01*
X133887770Y-56500500D01*
X133935223Y-56509939D01*
X133975451Y-56536819D01*
X134031344Y-56592712D01*
X134037485Y-56596500D01*
X134037488Y-56596502D01*
X134082881Y-56624500D01*
X134180666Y-56684814D01*
X134347203Y-56739999D01*
X134449991Y-56750500D01*
X135050008Y-56750499D01*
X135152797Y-56739999D01*
X135233680Y-56713197D01*
X136300000Y-56713197D01*
X136300191Y-56718076D01*
X136302402Y-56746173D01*
X136304668Y-56758579D01*
X136346541Y-56902705D01*
X136352689Y-56916912D01*
X136428344Y-57044838D01*
X136437835Y-57057074D01*
X136542925Y-57162164D01*
X136555161Y-57171655D01*
X136683087Y-57247310D01*
X136697294Y-57253458D01*
X136839223Y-57294692D01*
X136846293Y-57293286D01*
X136850000Y-57280144D01*
X136850000Y-56328826D01*
X136846549Y-56315950D01*
X136833674Y-56312500D01*
X136316326Y-56312500D01*
X136303450Y-56315950D01*
X136300000Y-56328826D01*
X136300000Y-56713197D01*
X135233680Y-56713197D01*
X135319334Y-56684814D01*
X135468656Y-56592712D01*
X135592712Y-56468656D01*
X135684814Y-56319334D01*
X135739999Y-56152797D01*
X135750500Y-56050009D01*
X135750499Y-55449992D01*
X135739999Y-55347203D01*
X135684814Y-55180666D01*
X135639341Y-55106942D01*
X135621586Y-55055048D01*
X135627954Y-55000569D01*
X135657196Y-54954171D01*
X135824552Y-54786815D01*
X135864777Y-54759939D01*
X135912230Y-54750500D01*
X136455899Y-54750500D01*
X136512194Y-54764015D01*
X136556217Y-54801615D01*
X136578372Y-54855102D01*
X136573830Y-54912818D01*
X136543580Y-54962181D01*
X136437835Y-55067925D01*
X136428344Y-55080161D01*
X136352689Y-55208087D01*
X136346541Y-55222294D01*
X136304668Y-55366420D01*
X136302402Y-55378826D01*
X136300191Y-55406923D01*
X136300000Y-55411803D01*
X136300000Y-55796174D01*
X136303450Y-55809049D01*
X136316326Y-55812500D01*
X137175500Y-55812500D01*
X137237500Y-55829113D01*
X137282887Y-55874500D01*
X137299500Y-55936500D01*
X137299500Y-57067674D01*
X137294576Y-57102269D01*
X137254170Y-57241342D01*
X137254168Y-57241351D01*
X137252402Y-57247431D01*
X137251905Y-57253739D01*
X137251904Y-57253748D01*
X137249691Y-57281871D01*
X137249690Y-57281886D01*
X137249500Y-57284306D01*
X137249500Y-58590694D01*
X137249690Y-58593114D01*
X137249691Y-58593128D01*
X137251904Y-58621251D01*
X137251905Y-58621258D01*
X137252402Y-58627569D01*
X137254168Y-58633650D01*
X137254170Y-58633657D01*
X137273610Y-58700568D01*
X137298256Y-58785398D01*
X137302226Y-58792111D01*
X137302227Y-58792113D01*
X137377946Y-58920148D01*
X137377948Y-58920151D01*
X137381919Y-58926865D01*
X137498135Y-59043081D01*
X137639602Y-59126744D01*
X137797431Y-59172598D01*
X137834306Y-59175500D01*
X137836751Y-59175500D01*
X138241389Y-59175500D01*
X138298838Y-59189611D01*
X138343212Y-59228733D01*
X138360284Y-59273208D01*
X138362012Y-59272765D01*
X138363951Y-59280317D01*
X138364929Y-59288058D01*
X138367800Y-59295309D01*
X138367802Y-59295317D01*
X138381737Y-59330515D01*
X138385520Y-59341562D01*
X138387343Y-59347835D01*
X138398256Y-59385398D01*
X138400091Y-59388501D01*
X138408639Y-59454467D01*
X138380106Y-59516655D01*
X138322935Y-59554242D01*
X138242555Y-59579289D01*
X138242543Y-59579294D01*
X138235394Y-59581522D01*
X138228982Y-59585398D01*
X138228978Y-59585400D01*
X138096232Y-59665648D01*
X138096227Y-59665651D01*
X138089815Y-59669528D01*
X138084515Y-59674827D01*
X138084511Y-59674831D01*
X137974831Y-59784511D01*
X137974827Y-59784515D01*
X137969528Y-59789815D01*
X137965651Y-59796227D01*
X137965648Y-59796232D01*
X137885400Y-59928978D01*
X137885398Y-59928982D01*
X137881522Y-59935394D01*
X137879292Y-59942548D01*
X137879292Y-59942550D01*
X137832864Y-60091542D01*
X137832861Y-60091553D01*
X137830914Y-60097804D01*
X137830320Y-60104335D01*
X137830320Y-60104338D01*
X137829885Y-60109132D01*
X137824500Y-60168384D01*
X137824500Y-60831616D01*
X137824754Y-60834419D01*
X137824755Y-60834425D01*
X137830153Y-60893819D01*
X137830914Y-60902196D01*
X137832862Y-60908448D01*
X137832864Y-60908457D01*
X137861530Y-61000449D01*
X137881522Y-61064606D01*
X137885399Y-61071020D01*
X137885400Y-61071021D01*
X137929572Y-61144091D01*
X137969528Y-61210185D01*
X138089815Y-61330472D01*
X138235394Y-61418478D01*
X138354859Y-61455704D01*
X138391542Y-61467135D01*
X138391544Y-61467135D01*
X138397804Y-61469086D01*
X138468384Y-61475500D01*
X138554192Y-61475500D01*
X138601645Y-61484939D01*
X138641873Y-61511819D01*
X139283373Y-62153319D01*
X139313623Y-62202682D01*
X139318165Y-62260398D01*
X139296010Y-62313885D01*
X139251987Y-62351485D01*
X139195692Y-62365000D01*
X138966326Y-62365000D01*
X138953450Y-62368450D01*
X138950000Y-62381326D01*
X138950000Y-63316000D01*
X138933387Y-63378000D01*
X138888000Y-63423387D01*
X138826000Y-63440000D01*
X137366326Y-63440000D01*
X137353450Y-63443450D01*
X137350000Y-63456326D01*
X137350000Y-63559518D01*
X137350353Y-63566114D01*
X137355573Y-63614667D01*
X137359111Y-63629641D01*
X137403547Y-63748779D01*
X137412431Y-63765049D01*
X137427597Y-63824472D01*
X137412431Y-63883896D01*
X137411513Y-63885576D01*
X137406204Y-63892669D01*
X137403107Y-63900971D01*
X137403106Y-63900974D01*
X137358620Y-64020247D01*
X137358619Y-64020250D01*
X137355909Y-64027517D01*
X137355079Y-64035227D01*
X137355079Y-64035232D01*
X137349855Y-64083819D01*
X137349854Y-64083831D01*
X137349500Y-64087127D01*
X137349500Y-64090448D01*
X137349500Y-64090449D01*
X137349500Y-64829560D01*
X137349500Y-64829578D01*
X137349501Y-64832872D01*
X137349853Y-64836150D01*
X137349854Y-64836161D01*
X137355079Y-64884768D01*
X137355080Y-64884773D01*
X137355909Y-64892483D01*
X137358619Y-64899749D01*
X137358620Y-64899753D01*
X137394409Y-64995707D01*
X137406204Y-65027331D01*
X137411516Y-65034427D01*
X137412143Y-65035575D01*
X137427310Y-65095000D01*
X137412143Y-65154425D01*
X137411516Y-65155572D01*
X137406204Y-65162669D01*
X137403107Y-65170971D01*
X137403105Y-65170976D01*
X137358620Y-65290247D01*
X137358619Y-65290250D01*
X137355909Y-65297517D01*
X137355079Y-65305227D01*
X137355079Y-65305232D01*
X137349855Y-65353819D01*
X137349854Y-65353831D01*
X137349500Y-65357127D01*
X137349500Y-65360448D01*
X137349500Y-65360449D01*
X137349500Y-66099560D01*
X137349500Y-66099578D01*
X137349501Y-66102872D01*
X137349853Y-66106150D01*
X137349854Y-66106161D01*
X137355079Y-66154768D01*
X137355080Y-66154773D01*
X137355909Y-66162483D01*
X137358619Y-66169749D01*
X137358620Y-66169753D01*
X137403104Y-66289021D01*
X137403105Y-66289024D01*
X137406204Y-66297331D01*
X137411518Y-66304430D01*
X137412142Y-66305572D01*
X137427310Y-66364997D01*
X137412144Y-66424422D01*
X137411514Y-66425575D01*
X137406204Y-66432669D01*
X137403107Y-66440971D01*
X137403106Y-66440974D01*
X137358620Y-66560247D01*
X137358619Y-66560250D01*
X137355909Y-66567517D01*
X137355079Y-66575227D01*
X137355079Y-66575232D01*
X137349855Y-66623819D01*
X137349854Y-66623831D01*
X137349500Y-66627127D01*
X137349500Y-66630448D01*
X137349500Y-66630449D01*
X137349500Y-67369560D01*
X137349500Y-67369578D01*
X137349501Y-67372872D01*
X137349853Y-67376150D01*
X137349854Y-67376161D01*
X137355079Y-67424768D01*
X137355080Y-67424773D01*
X137355909Y-67432483D01*
X137358619Y-67439749D01*
X137358620Y-67439753D01*
X137392217Y-67529831D01*
X137406204Y-67567331D01*
X137411518Y-67574430D01*
X137411519Y-67574431D01*
X137447601Y-67622631D01*
X137492454Y-67682546D01*
X137607669Y-67768796D01*
X137742517Y-67819091D01*
X137788758Y-67824062D01*
X137845003Y-67844660D01*
X137885032Y-67889223D01*
X137899500Y-67947351D01*
X137899500Y-72179192D01*
X137890061Y-72226645D01*
X137863181Y-72266873D01*
X137816873Y-72313181D01*
X137776645Y-72340061D01*
X137729192Y-72349500D01*
X124320808Y-72349500D01*
X124273355Y-72340061D01*
X124233127Y-72313181D01*
X123870399Y-71950453D01*
X123839657Y-71899541D01*
X123836157Y-71840171D01*
X123860704Y-71786000D01*
X123907645Y-71749492D01*
X123927593Y-71740612D01*
X124072230Y-71635526D01*
X124191859Y-71502665D01*
X124281250Y-71347835D01*
X124294916Y-71305776D01*
X126705307Y-71305776D01*
X126746541Y-71447705D01*
X126752689Y-71461912D01*
X126828344Y-71589838D01*
X126837835Y-71602074D01*
X126942925Y-71707164D01*
X126955161Y-71716655D01*
X127083087Y-71792310D01*
X127097294Y-71798458D01*
X127241420Y-71840331D01*
X127253826Y-71842597D01*
X127281923Y-71844808D01*
X127286803Y-71845000D01*
X127671174Y-71845000D01*
X127684049Y-71841549D01*
X127687500Y-71828674D01*
X128187500Y-71828674D01*
X128190950Y-71841549D01*
X128203826Y-71845000D01*
X128588197Y-71845000D01*
X128593076Y-71844808D01*
X128621173Y-71842597D01*
X128633579Y-71840331D01*
X128777705Y-71798458D01*
X128791912Y-71792310D01*
X128919838Y-71716655D01*
X128932074Y-71707164D01*
X129037164Y-71602074D01*
X129046655Y-71589838D01*
X129122310Y-71461912D01*
X129128458Y-71447705D01*
X129169692Y-71305776D01*
X129168286Y-71298706D01*
X129155144Y-71295000D01*
X128203826Y-71295000D01*
X128190950Y-71298450D01*
X128187500Y-71311326D01*
X128187500Y-71828674D01*
X127687500Y-71828674D01*
X127687500Y-71311326D01*
X127684049Y-71298450D01*
X127671174Y-71295000D01*
X126719856Y-71295000D01*
X126706713Y-71298706D01*
X126705307Y-71305776D01*
X124294916Y-71305776D01*
X124336497Y-71177803D01*
X124342988Y-71116034D01*
X124354388Y-71075614D01*
X124375906Y-71045165D01*
X130525001Y-71045165D01*
X130525321Y-71051447D01*
X130534455Y-71140867D01*
X130537274Y-71154036D01*
X130586180Y-71301625D01*
X130592246Y-71314633D01*
X130673632Y-71446580D01*
X130682537Y-71457842D01*
X130792157Y-71567462D01*
X130803419Y-71576367D01*
X130935366Y-71657753D01*
X130948374Y-71663819D01*
X131095969Y-71712727D01*
X131109125Y-71715543D01*
X131198555Y-71724680D01*
X131204832Y-71725000D01*
X131233674Y-71725000D01*
X131246549Y-71721549D01*
X131250000Y-71708674D01*
X131250000Y-71708673D01*
X131750000Y-71708673D01*
X131753450Y-71721548D01*
X131766326Y-71724999D01*
X131795165Y-71724999D01*
X131801447Y-71724678D01*
X131890867Y-71715544D01*
X131904036Y-71712725D01*
X132051625Y-71663819D01*
X132064633Y-71657753D01*
X132196580Y-71576367D01*
X132207842Y-71567462D01*
X132317462Y-71457842D01*
X132326367Y-71446580D01*
X132407753Y-71314633D01*
X132413819Y-71301625D01*
X132462727Y-71154030D01*
X132465543Y-71140874D01*
X132474680Y-71051444D01*
X132475000Y-71045168D01*
X132475000Y-71041326D01*
X132471549Y-71028450D01*
X132458674Y-71025000D01*
X131766326Y-71025000D01*
X131753450Y-71028450D01*
X131750000Y-71041326D01*
X131750000Y-71708673D01*
X131250000Y-71708673D01*
X131250000Y-71041326D01*
X131246549Y-71028450D01*
X131233674Y-71025000D01*
X130541327Y-71025000D01*
X130528451Y-71028450D01*
X130525001Y-71041326D01*
X130525001Y-71045165D01*
X124375906Y-71045165D01*
X124378622Y-71041322D01*
X124638129Y-70781816D01*
X124678355Y-70754939D01*
X124725808Y-70745500D01*
X125009610Y-70745500D01*
X125049742Y-70752174D01*
X125072371Y-70764371D01*
X125073135Y-70763081D01*
X125214602Y-70846744D01*
X125372431Y-70892598D01*
X125409306Y-70895500D01*
X126713249Y-70895500D01*
X126715694Y-70895500D01*
X126752569Y-70892598D01*
X126910398Y-70846744D01*
X126968693Y-70812268D01*
X127031815Y-70795000D01*
X127671174Y-70795000D01*
X127684049Y-70791549D01*
X127687500Y-70778674D01*
X128187500Y-70778674D01*
X128190950Y-70791549D01*
X128203826Y-70795000D01*
X129155144Y-70795000D01*
X129168286Y-70791293D01*
X129169692Y-70784223D01*
X129128458Y-70642294D01*
X129122310Y-70628087D01*
X129046655Y-70500161D01*
X129037164Y-70487925D01*
X128932074Y-70382835D01*
X128919838Y-70373344D01*
X128791912Y-70297689D01*
X128777705Y-70291541D01*
X128633579Y-70249668D01*
X128621173Y-70247402D01*
X128593076Y-70245191D01*
X128588197Y-70245000D01*
X128203826Y-70245000D01*
X128190950Y-70248450D01*
X128187500Y-70261326D01*
X128187500Y-70778674D01*
X127687500Y-70778674D01*
X127687500Y-70261326D01*
X127684049Y-70248450D01*
X127671174Y-70245000D01*
X127424500Y-70245000D01*
X127362500Y-70228387D01*
X127317113Y-70183000D01*
X127300500Y-70121000D01*
X127300500Y-70069500D01*
X127317113Y-70007500D01*
X127362500Y-69962113D01*
X127424500Y-69945500D01*
X128332865Y-69945500D01*
X128357936Y-69948060D01*
X128403292Y-69957425D01*
X128406816Y-69958207D01*
X128443007Y-69966784D01*
X128479779Y-69975500D01*
X128487010Y-69975500D01*
X128490449Y-69975902D01*
X128490785Y-69975956D01*
X128491140Y-69975972D01*
X128494566Y-69976271D01*
X128501644Y-69977733D01*
X128576610Y-69975552D01*
X128580217Y-69975500D01*
X130530360Y-69975500D01*
X130593139Y-69992567D01*
X130638638Y-70039069D01*
X130654330Y-70102206D01*
X130635898Y-70164598D01*
X130592244Y-70235370D01*
X130586180Y-70248374D01*
X130537272Y-70395969D01*
X130534456Y-70409125D01*
X130525319Y-70498555D01*
X130525000Y-70504832D01*
X130525000Y-70508674D01*
X130528450Y-70521549D01*
X130541326Y-70525000D01*
X132458673Y-70525000D01*
X132471548Y-70521549D01*
X132474999Y-70508674D01*
X132474999Y-70504835D01*
X132474678Y-70498552D01*
X132465544Y-70409132D01*
X132462725Y-70395963D01*
X132413819Y-70248374D01*
X132407753Y-70235366D01*
X132326366Y-70103418D01*
X132322831Y-70098947D01*
X132299037Y-70048878D01*
X132299438Y-69993445D01*
X132323954Y-69943725D01*
X132366113Y-69910880D01*
X132369334Y-69909814D01*
X132375490Y-69906016D01*
X132378603Y-69904565D01*
X132378932Y-69904428D01*
X132379238Y-69904258D01*
X132382315Y-69902712D01*
X132389117Y-69900237D01*
X132398480Y-69894078D01*
X132417506Y-69883818D01*
X132427804Y-69879377D01*
X132467545Y-69849789D01*
X132476481Y-69843724D01*
X132518656Y-69817712D01*
X132523763Y-69812603D01*
X132526476Y-69810459D01*
X132526754Y-69810258D01*
X132527028Y-69810007D01*
X132529654Y-69807803D01*
X132535696Y-69803830D01*
X132543387Y-69795677D01*
X132559535Y-69781306D01*
X132567971Y-69775025D01*
X132603008Y-69756791D01*
X132642004Y-69750500D01*
X133486293Y-69750500D01*
X133504264Y-69751809D01*
X133508160Y-69752379D01*
X133528023Y-69755289D01*
X133577368Y-69750972D01*
X133588176Y-69750500D01*
X133590100Y-69750500D01*
X133593709Y-69750500D01*
X133624550Y-69746894D01*
X133628031Y-69746539D01*
X133702797Y-69739999D01*
X133709653Y-69737726D01*
X133713043Y-69737027D01*
X133713375Y-69736973D01*
X133713728Y-69736873D01*
X133717071Y-69736080D01*
X133724255Y-69735241D01*
X133794760Y-69709579D01*
X133798118Y-69708412D01*
X133869334Y-69684814D01*
X133875486Y-69681018D01*
X133878607Y-69679564D01*
X133878929Y-69679430D01*
X133879238Y-69679258D01*
X133882315Y-69677712D01*
X133889117Y-69675237D01*
X133951837Y-69633984D01*
X133954732Y-69632140D01*
X134018656Y-69592712D01*
X134023763Y-69587603D01*
X134026476Y-69585459D01*
X134026758Y-69585254D01*
X134027029Y-69585007D01*
X134029658Y-69582800D01*
X134035696Y-69578830D01*
X134087187Y-69524251D01*
X134089632Y-69521734D01*
X134960641Y-68650725D01*
X134974265Y-68638951D01*
X134993530Y-68624610D01*
X135025372Y-68586661D01*
X135032686Y-68578681D01*
X135033264Y-68578102D01*
X135036591Y-68574776D01*
X135055853Y-68550412D01*
X135058040Y-68547728D01*
X135106302Y-68490214D01*
X135109548Y-68483748D01*
X135111436Y-68480879D01*
X135111644Y-68480590D01*
X135111821Y-68480274D01*
X135113622Y-68477352D01*
X135118111Y-68471677D01*
X135149819Y-68403676D01*
X135151358Y-68400496D01*
X135185040Y-68333433D01*
X135186706Y-68326399D01*
X135187881Y-68323172D01*
X135188022Y-68322831D01*
X135188120Y-68322486D01*
X135189201Y-68319223D01*
X135192257Y-68312672D01*
X135207430Y-68239185D01*
X135208212Y-68235660D01*
X135208869Y-68232887D01*
X135225500Y-68162721D01*
X135225500Y-68155500D01*
X135225902Y-68152062D01*
X135225956Y-68151723D01*
X135225972Y-68151373D01*
X135226273Y-68147930D01*
X135227734Y-68140855D01*
X135225552Y-68065869D01*
X135225500Y-68062262D01*
X135225500Y-62923674D01*
X137350000Y-62923674D01*
X137353450Y-62936549D01*
X137366326Y-62940000D01*
X138433674Y-62940000D01*
X138446549Y-62936549D01*
X138450000Y-62923674D01*
X138450000Y-62381326D01*
X138446549Y-62368450D01*
X138433674Y-62365000D01*
X137805482Y-62365000D01*
X137798885Y-62365353D01*
X137750332Y-62370573D01*
X137735358Y-62374111D01*
X137616222Y-62418547D01*
X137600810Y-62426962D01*
X137499907Y-62502498D01*
X137487498Y-62514907D01*
X137411962Y-62615810D01*
X137403547Y-62631222D01*
X137359111Y-62750358D01*
X137355573Y-62765332D01*
X137350353Y-62813885D01*
X137350000Y-62820482D01*
X137350000Y-62923674D01*
X135225500Y-62923674D01*
X135225500Y-61469640D01*
X135242567Y-61406861D01*
X135289069Y-61361362D01*
X135352206Y-61345670D01*
X135414598Y-61364102D01*
X135485370Y-61407755D01*
X135498374Y-61413819D01*
X135645969Y-61462727D01*
X135659125Y-61465543D01*
X135748555Y-61474680D01*
X135754832Y-61475000D01*
X135758674Y-61475000D01*
X135771549Y-61471549D01*
X135775000Y-61458674D01*
X135775000Y-61458673D01*
X136275000Y-61458673D01*
X136278450Y-61471548D01*
X136291326Y-61474999D01*
X136295165Y-61474999D01*
X136301447Y-61474678D01*
X136390867Y-61465544D01*
X136404036Y-61462725D01*
X136551625Y-61413819D01*
X136564633Y-61407753D01*
X136696580Y-61326367D01*
X136707842Y-61317462D01*
X136817462Y-61207842D01*
X136826367Y-61196580D01*
X136907753Y-61064633D01*
X136913819Y-61051625D01*
X136962727Y-60904030D01*
X136965543Y-60890874D01*
X136974680Y-60801444D01*
X136975000Y-60795168D01*
X136975000Y-60766326D01*
X136971549Y-60753450D01*
X136958674Y-60750000D01*
X136291326Y-60750000D01*
X136278450Y-60753450D01*
X136275000Y-60766326D01*
X136275000Y-61458673D01*
X135775000Y-61458673D01*
X135775000Y-60233674D01*
X136275000Y-60233674D01*
X136278450Y-60246549D01*
X136291326Y-60250000D01*
X136958673Y-60250000D01*
X136971548Y-60246549D01*
X136974999Y-60233674D01*
X136974999Y-60204835D01*
X136974678Y-60198552D01*
X136965544Y-60109132D01*
X136962725Y-60095963D01*
X136913819Y-59948374D01*
X136907753Y-59935366D01*
X136826367Y-59803419D01*
X136817462Y-59792157D01*
X136707842Y-59682537D01*
X136696580Y-59673632D01*
X136564633Y-59592246D01*
X136551625Y-59586180D01*
X136404030Y-59537272D01*
X136390874Y-59534456D01*
X136301444Y-59525319D01*
X136295168Y-59525000D01*
X136291326Y-59525000D01*
X136278450Y-59528450D01*
X136275000Y-59541326D01*
X136275000Y-60233674D01*
X135775000Y-60233674D01*
X135775000Y-59541327D01*
X135771549Y-59528451D01*
X135758674Y-59525001D01*
X135754835Y-59525001D01*
X135748552Y-59525321D01*
X135659132Y-59534455D01*
X135645963Y-59537274D01*
X135498374Y-59586180D01*
X135485366Y-59592246D01*
X135353416Y-59673634D01*
X135342157Y-59682536D01*
X135338024Y-59686669D01*
X135282437Y-59718755D01*
X135218254Y-59718752D01*
X135162671Y-59686659D01*
X135158154Y-59682142D01*
X135153044Y-59677032D01*
X135087598Y-59636664D01*
X135043123Y-59589175D01*
X135028815Y-59525704D01*
X135048613Y-59463727D01*
X135090024Y-59426616D01*
X135089117Y-59425237D01*
X135161072Y-59377911D01*
X135235696Y-59328830D01*
X135356092Y-59201218D01*
X135375479Y-59167636D01*
X135417770Y-59124098D01*
X135468656Y-59092712D01*
X135592712Y-58968656D01*
X135684814Y-58819334D01*
X135739999Y-58652797D01*
X135750500Y-58550009D01*
X135750499Y-57949992D01*
X135739999Y-57847203D01*
X135684814Y-57680666D01*
X135624604Y-57583049D01*
X135596502Y-57537488D01*
X135596500Y-57537485D01*
X135592712Y-57531344D01*
X135468656Y-57407288D01*
X135462515Y-57403500D01*
X135462511Y-57403497D01*
X135325480Y-57318977D01*
X135319334Y-57315186D01*
X135257487Y-57294692D01*
X135159225Y-57262131D01*
X135159224Y-57262130D01*
X135152797Y-57260001D01*
X135146064Y-57259313D01*
X135146059Y-57259312D01*
X135053140Y-57249819D01*
X135053123Y-57249818D01*
X135050009Y-57249500D01*
X135046860Y-57249500D01*
X134453141Y-57249500D01*
X134453121Y-57249500D01*
X134449992Y-57249501D01*
X134446860Y-57249820D01*
X134446858Y-57249821D01*
X134353938Y-57259312D01*
X134353928Y-57259313D01*
X134347203Y-57260001D01*
X134340781Y-57262128D01*
X134340776Y-57262130D01*
X134187521Y-57312914D01*
X134187517Y-57312915D01*
X134180666Y-57315186D01*
X134174522Y-57318975D01*
X134174519Y-57318977D01*
X134037488Y-57403497D01*
X134037480Y-57403503D01*
X134031344Y-57407288D01*
X134026242Y-57412389D01*
X134026238Y-57412393D01*
X133912393Y-57526238D01*
X133912389Y-57526242D01*
X133907288Y-57531344D01*
X133903503Y-57537480D01*
X133903497Y-57537488D01*
X133818977Y-57674519D01*
X133815186Y-57680666D01*
X133760001Y-57847203D01*
X133759313Y-57853931D01*
X133759312Y-57853939D01*
X133755823Y-57888102D01*
X133735400Y-57944640D01*
X133690786Y-57984929D01*
X133632465Y-57999500D01*
X133113707Y-57999500D01*
X133095736Y-57998191D01*
X133079126Y-57995758D01*
X133079124Y-57995757D01*
X133071977Y-57994711D01*
X133064785Y-57995340D01*
X133064778Y-57995340D01*
X133022634Y-57999028D01*
X133011827Y-57999500D01*
X133006291Y-57999500D01*
X133002717Y-57999917D01*
X133002711Y-57999918D01*
X132975487Y-58003099D01*
X132971906Y-58003465D01*
X132904397Y-58009372D01*
X132904392Y-58009372D01*
X132897203Y-58010002D01*
X132890351Y-58012271D01*
X132886951Y-58012974D01*
X132886611Y-58013029D01*
X132886304Y-58013116D01*
X132882904Y-58013921D01*
X132875745Y-58014759D01*
X132868971Y-58017224D01*
X132868964Y-58017226D01*
X132805245Y-58040417D01*
X132801842Y-58041600D01*
X132737511Y-58062917D01*
X132737507Y-58062918D01*
X132730665Y-58065186D01*
X132724528Y-58068970D01*
X132721357Y-58070449D01*
X132721062Y-58070571D01*
X132720772Y-58070733D01*
X132717662Y-58072294D01*
X132710883Y-58074763D01*
X132704852Y-58078729D01*
X132704853Y-58078729D01*
X132648235Y-58115966D01*
X132645197Y-58117901D01*
X132587487Y-58153498D01*
X132587481Y-58153502D01*
X132581344Y-58157288D01*
X132576246Y-58162385D01*
X132573503Y-58164554D01*
X132573247Y-58164739D01*
X132572997Y-58164968D01*
X132570330Y-58167205D01*
X132564304Y-58171170D01*
X132559352Y-58176419D01*
X132512849Y-58225708D01*
X132510337Y-58228293D01*
X132325449Y-58413181D01*
X132285221Y-58440061D01*
X132237768Y-58449500D01*
X131455439Y-58449500D01*
X131455420Y-58449500D01*
X131452128Y-58449501D01*
X131448850Y-58449853D01*
X131448838Y-58449854D01*
X131400231Y-58455079D01*
X131400225Y-58455080D01*
X131392517Y-58455909D01*
X131385252Y-58458618D01*
X131385246Y-58458620D01*
X131265980Y-58503104D01*
X131265978Y-58503104D01*
X131257669Y-58506204D01*
X131250572Y-58511516D01*
X131250568Y-58511519D01*
X131149550Y-58587141D01*
X131149546Y-58587144D01*
X131142454Y-58592454D01*
X131137144Y-58599546D01*
X131137141Y-58599550D01*
X131061519Y-58700568D01*
X131061516Y-58700572D01*
X131056204Y-58707669D01*
X131053104Y-58715978D01*
X131053104Y-58715980D01*
X131008620Y-58835247D01*
X131008619Y-58835250D01*
X131005909Y-58842517D01*
X131005079Y-58850227D01*
X131005079Y-58850232D01*
X130999855Y-58898819D01*
X130999854Y-58898831D01*
X130999500Y-58902127D01*
X130999500Y-58905448D01*
X130999500Y-58905449D01*
X130999500Y-60694560D01*
X130999500Y-60694578D01*
X130999501Y-60697872D01*
X130999853Y-60701150D01*
X130999854Y-60701161D01*
X131005079Y-60749768D01*
X131005080Y-60749773D01*
X131005909Y-60757483D01*
X131008619Y-60764749D01*
X131008620Y-60764753D01*
X131032507Y-60828797D01*
X131056204Y-60892331D01*
X131061518Y-60899430D01*
X131061519Y-60899431D01*
X131109000Y-60962858D01*
X131142454Y-61007546D01*
X131257669Y-61093796D01*
X131392517Y-61144091D01*
X131452127Y-61150500D01*
X132291679Y-61150499D01*
X132344080Y-61162115D01*
X132371314Y-61174815D01*
X132374467Y-61176341D01*
X132441567Y-61210040D01*
X132448597Y-61211705D01*
X132451831Y-61212883D01*
X132452163Y-61213020D01*
X132452493Y-61213114D01*
X132455781Y-61214203D01*
X132462327Y-61217256D01*
X132535862Y-61232439D01*
X132539223Y-61233184D01*
X132612279Y-61250500D01*
X132619509Y-61250500D01*
X132622949Y-61250902D01*
X132623286Y-61250956D01*
X132623640Y-61250972D01*
X132627066Y-61251271D01*
X132634144Y-61252733D01*
X132709110Y-61250552D01*
X132712717Y-61250500D01*
X133600500Y-61250500D01*
X133662500Y-61267113D01*
X133707887Y-61312500D01*
X133724500Y-61374500D01*
X133724500Y-67712771D01*
X133715061Y-67760224D01*
X133688181Y-67800452D01*
X133275451Y-68213181D01*
X133235223Y-68240061D01*
X133187770Y-68249500D01*
X132924500Y-68249500D01*
X132862500Y-68232887D01*
X132817113Y-68187500D01*
X132800500Y-68125500D01*
X132800500Y-67713707D01*
X132801809Y-67695736D01*
X132802297Y-67692396D01*
X132805289Y-67671977D01*
X132800972Y-67622631D01*
X132800500Y-67611824D01*
X132800500Y-67609901D01*
X132800500Y-67606291D01*
X132796903Y-67575520D01*
X132796536Y-67571929D01*
X132795407Y-67559019D01*
X132789999Y-67497203D01*
X132787726Y-67490345D01*
X132787027Y-67486957D01*
X132786972Y-67486619D01*
X132786878Y-67486286D01*
X132786079Y-67482915D01*
X132785241Y-67475745D01*
X132759587Y-67405262D01*
X132758423Y-67401915D01*
X132756797Y-67397008D01*
X132750499Y-67358000D01*
X132750499Y-66627128D01*
X132744091Y-66567517D01*
X132693796Y-66432669D01*
X132688482Y-66425570D01*
X132687857Y-66424426D01*
X132672689Y-66364997D01*
X132687859Y-66305568D01*
X132688477Y-66304435D01*
X132693796Y-66297331D01*
X132744091Y-66162483D01*
X132750500Y-66102873D01*
X132750499Y-65357128D01*
X132744091Y-65297517D01*
X132693796Y-65162669D01*
X132688479Y-65155567D01*
X132687858Y-65154429D01*
X132672689Y-65095000D01*
X132687858Y-65035571D01*
X132688479Y-65034432D01*
X132693796Y-65027331D01*
X132744091Y-64892483D01*
X132750500Y-64832873D01*
X132750499Y-64087128D01*
X132744091Y-64027517D01*
X132693796Y-63892669D01*
X132688477Y-63885563D01*
X132687859Y-63884432D01*
X132672688Y-63825000D01*
X132687859Y-63765568D01*
X132688477Y-63764435D01*
X132693796Y-63757331D01*
X132744091Y-63622483D01*
X132750500Y-63562873D01*
X132750499Y-62817128D01*
X132744091Y-62757517D01*
X132693796Y-62622669D01*
X132607546Y-62507454D01*
X132492331Y-62421204D01*
X132421965Y-62394959D01*
X132364752Y-62373620D01*
X132364750Y-62373619D01*
X132357483Y-62370909D01*
X132349770Y-62370079D01*
X132349767Y-62370079D01*
X132301180Y-62364855D01*
X132301169Y-62364854D01*
X132297873Y-62364500D01*
X132294550Y-62364500D01*
X130505439Y-62364500D01*
X130505420Y-62364500D01*
X130502128Y-62364501D01*
X130498850Y-62364853D01*
X130498838Y-62364854D01*
X130450231Y-62370079D01*
X130450225Y-62370080D01*
X130442517Y-62370909D01*
X130435252Y-62373618D01*
X130435246Y-62373620D01*
X130315980Y-62418104D01*
X130315978Y-62418104D01*
X130307669Y-62421204D01*
X130300572Y-62426516D01*
X130300568Y-62426519D01*
X130199550Y-62502141D01*
X130199546Y-62502144D01*
X130195269Y-62505346D01*
X130195261Y-62505352D01*
X130192454Y-62507454D01*
X130192341Y-62507303D01*
X130158283Y-62530061D01*
X130110830Y-62539500D01*
X129899500Y-62539500D01*
X129837500Y-62522887D01*
X129792113Y-62477500D01*
X129775500Y-62415500D01*
X129775500Y-62266203D01*
X129775500Y-62263384D01*
X129769086Y-62192804D01*
X129718478Y-62030394D01*
X129630472Y-61884815D01*
X129510185Y-61764528D01*
X129485873Y-61749831D01*
X129371021Y-61680400D01*
X129371020Y-61680399D01*
X129364606Y-61676522D01*
X129335500Y-61667452D01*
X129208457Y-61627864D01*
X129208448Y-61627862D01*
X129202196Y-61625914D01*
X129195662Y-61625320D01*
X129195661Y-61625320D01*
X129134425Y-61619755D01*
X129134419Y-61619754D01*
X129131616Y-61619500D01*
X128618384Y-61619500D01*
X128615581Y-61619754D01*
X128615574Y-61619755D01*
X128554338Y-61625320D01*
X128554335Y-61625320D01*
X128547804Y-61625914D01*
X128541553Y-61627861D01*
X128541542Y-61627864D01*
X128392550Y-61674292D01*
X128385394Y-61676522D01*
X128378982Y-61680398D01*
X128378978Y-61680400D01*
X128246232Y-61760648D01*
X128246227Y-61760651D01*
X128239815Y-61764528D01*
X128234515Y-61769827D01*
X128234511Y-61769831D01*
X128137681Y-61866662D01*
X128082094Y-61898756D01*
X128017906Y-61898756D01*
X127962319Y-61866662D01*
X127865488Y-61769831D01*
X127865487Y-61769830D01*
X127860185Y-61764528D01*
X127835873Y-61749831D01*
X127721021Y-61680400D01*
X127721020Y-61680399D01*
X127714606Y-61676522D01*
X127685500Y-61667452D01*
X127558457Y-61627864D01*
X127558448Y-61627862D01*
X127552196Y-61625914D01*
X127545662Y-61625320D01*
X127545661Y-61625320D01*
X127484425Y-61619755D01*
X127484419Y-61619754D01*
X127481616Y-61619500D01*
X127478797Y-61619500D01*
X127220808Y-61619500D01*
X127173355Y-61610061D01*
X127133127Y-61583181D01*
X126417299Y-60867353D01*
X126409436Y-60858712D01*
X126409382Y-60858647D01*
X126405202Y-60852060D01*
X126354166Y-60804134D01*
X126351369Y-60801423D01*
X126333789Y-60783843D01*
X126331035Y-60781089D01*
X126327956Y-60778701D01*
X126327951Y-60778696D01*
X126327548Y-60778383D01*
X126318669Y-60770799D01*
X126291085Y-60744896D01*
X126291079Y-60744892D01*
X126285393Y-60739552D01*
X126278557Y-60735794D01*
X126278556Y-60735793D01*
X126266794Y-60729327D01*
X126250531Y-60718644D01*
X126239924Y-60710416D01*
X126239922Y-60710415D01*
X126233764Y-60705638D01*
X126226612Y-60702543D01*
X126226607Y-60702540D01*
X126191869Y-60687508D01*
X126181379Y-60682369D01*
X126148207Y-60664132D01*
X126148202Y-60664130D01*
X126141368Y-60660373D01*
X126120796Y-60655090D01*
X126102397Y-60648790D01*
X126092664Y-60644578D01*
X127499500Y-60644578D01*
X127499501Y-60647872D01*
X127499853Y-60651150D01*
X127499854Y-60651161D01*
X127505079Y-60699768D01*
X127505080Y-60699773D01*
X127505909Y-60707483D01*
X127508619Y-60714749D01*
X127508620Y-60714753D01*
X127527269Y-60764753D01*
X127556204Y-60842331D01*
X127642454Y-60957546D01*
X127757669Y-61043796D01*
X127892517Y-61094091D01*
X127952127Y-61100500D01*
X129047872Y-61100499D01*
X129107483Y-61094091D01*
X129242331Y-61043796D01*
X129357546Y-60957546D01*
X129443796Y-60842331D01*
X129494091Y-60707483D01*
X129500500Y-60647873D01*
X129500499Y-58852128D01*
X129494091Y-58792517D01*
X129443796Y-58657669D01*
X129357546Y-58542454D01*
X129290825Y-58492507D01*
X129249431Y-58461519D01*
X129249430Y-58461518D01*
X129242331Y-58456204D01*
X129171965Y-58429959D01*
X129114752Y-58408620D01*
X129114750Y-58408619D01*
X129107483Y-58405909D01*
X129099770Y-58405079D01*
X129099767Y-58405079D01*
X129051180Y-58399855D01*
X129051169Y-58399854D01*
X129047873Y-58399500D01*
X129044550Y-58399500D01*
X127955439Y-58399500D01*
X127955420Y-58399500D01*
X127952128Y-58399501D01*
X127948850Y-58399853D01*
X127948838Y-58399854D01*
X127900231Y-58405079D01*
X127900225Y-58405080D01*
X127892517Y-58405909D01*
X127885252Y-58408618D01*
X127885246Y-58408620D01*
X127765980Y-58453104D01*
X127765978Y-58453104D01*
X127757669Y-58456204D01*
X127750572Y-58461516D01*
X127750568Y-58461519D01*
X127649550Y-58537141D01*
X127649546Y-58537144D01*
X127642454Y-58542454D01*
X127637144Y-58549546D01*
X127637141Y-58549550D01*
X127561519Y-58650568D01*
X127561516Y-58650572D01*
X127556204Y-58657669D01*
X127553104Y-58665978D01*
X127553104Y-58665980D01*
X127508620Y-58785247D01*
X127508619Y-58785250D01*
X127505909Y-58792517D01*
X127505079Y-58800227D01*
X127505079Y-58800232D01*
X127499855Y-58848819D01*
X127499854Y-58848831D01*
X127499500Y-58852127D01*
X127499500Y-58855448D01*
X127499500Y-58855449D01*
X127499500Y-60644560D01*
X127499500Y-60644578D01*
X126092664Y-60644578D01*
X126090087Y-60643463D01*
X126090081Y-60643461D01*
X126082926Y-60640365D01*
X126075227Y-60639145D01*
X126075222Y-60639144D01*
X126037837Y-60633223D01*
X126026399Y-60630854D01*
X125989735Y-60621440D01*
X125989730Y-60621439D01*
X125982177Y-60619500D01*
X125974375Y-60619500D01*
X125960954Y-60619500D01*
X125941555Y-60617973D01*
X125928302Y-60615873D01*
X125928296Y-60615872D01*
X125920595Y-60614653D01*
X125912829Y-60615387D01*
X125912827Y-60615387D01*
X125875140Y-60618950D01*
X125863470Y-60619500D01*
X125152398Y-60619500D01*
X125094923Y-60605375D01*
X125050541Y-60566219D01*
X125029365Y-60510952D01*
X125036217Y-60452165D01*
X125040887Y-60439642D01*
X125044426Y-60424667D01*
X125049646Y-60376114D01*
X125050000Y-60369518D01*
X125050000Y-60266326D01*
X125046549Y-60253450D01*
X125033674Y-60250000D01*
X121066326Y-60250000D01*
X121053450Y-60253450D01*
X121050000Y-60266326D01*
X121050000Y-60320500D01*
X121033387Y-60382500D01*
X120988000Y-60427887D01*
X120926000Y-60444500D01*
X118505439Y-60444500D01*
X118505420Y-60444500D01*
X118502128Y-60444501D01*
X118498850Y-60444853D01*
X118498838Y-60444854D01*
X118450231Y-60450079D01*
X118450225Y-60450080D01*
X118442517Y-60450909D01*
X118435252Y-60453618D01*
X118435246Y-60453620D01*
X118315980Y-60498104D01*
X118315978Y-60498104D01*
X118307669Y-60501204D01*
X118300572Y-60506516D01*
X118300568Y-60506519D01*
X118199550Y-60582141D01*
X118199546Y-60582144D01*
X118192454Y-60587454D01*
X118187144Y-60594546D01*
X118187141Y-60594550D01*
X118111519Y-60695568D01*
X118111516Y-60695572D01*
X118106204Y-60702669D01*
X118103104Y-60710978D01*
X118103104Y-60710980D01*
X118058620Y-60830247D01*
X118058619Y-60830250D01*
X118055909Y-60837517D01*
X118055079Y-60845227D01*
X118055079Y-60845232D01*
X118049855Y-60893819D01*
X118049854Y-60893831D01*
X118049500Y-60897127D01*
X118049500Y-60900448D01*
X118049500Y-60900449D01*
X118049500Y-61639560D01*
X118049500Y-61639578D01*
X118049501Y-61642872D01*
X118049853Y-61646150D01*
X118049854Y-61646161D01*
X118055079Y-61694768D01*
X118055080Y-61694773D01*
X118055909Y-61702483D01*
X118058619Y-61709749D01*
X118058620Y-61709753D01*
X118077603Y-61760648D01*
X118106204Y-61837331D01*
X118111518Y-61844430D01*
X118111519Y-61844431D01*
X118141750Y-61884815D01*
X118192454Y-61952546D01*
X118307669Y-62038796D01*
X118442517Y-62089091D01*
X118502127Y-62095500D01*
X120925500Y-62095499D01*
X120987500Y-62112112D01*
X121032887Y-62157499D01*
X121049500Y-62219499D01*
X121049500Y-62860500D01*
X121032887Y-62922500D01*
X120987500Y-62967887D01*
X120925500Y-62984500D01*
X118505439Y-62984500D01*
X118505420Y-62984500D01*
X118502128Y-62984501D01*
X118498850Y-62984853D01*
X118498838Y-62984854D01*
X118450231Y-62990079D01*
X118450225Y-62990080D01*
X118442517Y-62990909D01*
X118435252Y-62993618D01*
X118435246Y-62993620D01*
X118315980Y-63038104D01*
X118315978Y-63038104D01*
X118307669Y-63041204D01*
X118300572Y-63046516D01*
X118300568Y-63046519D01*
X118199550Y-63122141D01*
X118199546Y-63122144D01*
X118192454Y-63127454D01*
X118187144Y-63134546D01*
X118187141Y-63134550D01*
X118111519Y-63235568D01*
X118111516Y-63235572D01*
X118106204Y-63242669D01*
X118103104Y-63250978D01*
X118103104Y-63250980D01*
X118058620Y-63370247D01*
X118058619Y-63370250D01*
X118055909Y-63377517D01*
X118055079Y-63385227D01*
X118055079Y-63385232D01*
X118049855Y-63433819D01*
X118049854Y-63433831D01*
X118049500Y-63437127D01*
X118049500Y-63440448D01*
X118049500Y-63440449D01*
X118049500Y-64179560D01*
X118049500Y-64179578D01*
X114700500Y-64179578D01*
X114700500Y-59000000D01*
X116694815Y-59000000D01*
X116695494Y-59006460D01*
X116712823Y-59171341D01*
X116712824Y-59171348D01*
X116713503Y-59177803D01*
X116715510Y-59183982D01*
X116715511Y-59183983D01*
X116766711Y-59341562D01*
X116768750Y-59347835D01*
X116771997Y-59353459D01*
X116771998Y-59353461D01*
X116849778Y-59488181D01*
X116858141Y-59502665D01*
X116862485Y-59507490D01*
X116862487Y-59507492D01*
X116929144Y-59581522D01*
X116977770Y-59635526D01*
X117122407Y-59740612D01*
X117254170Y-59799276D01*
X117263474Y-59803419D01*
X117285733Y-59813329D01*
X117292091Y-59814680D01*
X117292093Y-59814681D01*
X117327685Y-59822246D01*
X117460609Y-59850500D01*
X117632888Y-59850500D01*
X117639391Y-59850500D01*
X117814267Y-59813329D01*
X117977593Y-59740612D01*
X118122230Y-59635526D01*
X118204569Y-59544078D01*
X118243953Y-59514839D01*
X118291601Y-59503160D01*
X118340044Y-59510871D01*
X118442517Y-59549091D01*
X118502127Y-59555500D01*
X120926000Y-59555499D01*
X120988000Y-59572112D01*
X121033387Y-59617499D01*
X121050000Y-59679499D01*
X121050000Y-59733674D01*
X121053450Y-59746549D01*
X121066326Y-59750000D01*
X122783674Y-59750000D01*
X122796549Y-59746549D01*
X122800000Y-59733674D01*
X123300000Y-59733674D01*
X123303450Y-59746549D01*
X123316326Y-59750000D01*
X125033674Y-59750000D01*
X125046549Y-59746549D01*
X125050000Y-59733674D01*
X125050000Y-59630482D01*
X125049646Y-59623885D01*
X125044426Y-59575332D01*
X125040888Y-59560358D01*
X124996452Y-59441222D01*
X124988037Y-59425810D01*
X124912501Y-59324907D01*
X124900092Y-59312498D01*
X124799189Y-59236962D01*
X124783777Y-59228547D01*
X124664641Y-59184111D01*
X124649667Y-59180573D01*
X124601114Y-59175353D01*
X124594518Y-59175000D01*
X123316326Y-59175000D01*
X123303450Y-59178450D01*
X123300000Y-59191326D01*
X123300000Y-59733674D01*
X122800000Y-59733674D01*
X122800000Y-59191326D01*
X122796549Y-59178450D01*
X122783674Y-59175000D01*
X122174500Y-59175000D01*
X122112500Y-59158387D01*
X122067113Y-59113000D01*
X122050500Y-59051000D01*
X122050499Y-58360439D01*
X122050499Y-58357128D01*
X122044091Y-58297517D01*
X121993796Y-58162669D01*
X121907546Y-58047454D01*
X121861676Y-58013116D01*
X121799431Y-57966519D01*
X121799430Y-57966518D01*
X121792331Y-57961204D01*
X121657483Y-57910909D01*
X121649770Y-57910079D01*
X121649767Y-57910079D01*
X121601180Y-57904855D01*
X121601169Y-57904854D01*
X121597873Y-57904500D01*
X121594550Y-57904500D01*
X118505439Y-57904500D01*
X118505420Y-57904500D01*
X118502128Y-57904501D01*
X118498850Y-57904853D01*
X118498838Y-57904854D01*
X118450231Y-57910079D01*
X118450225Y-57910080D01*
X118442517Y-57910909D01*
X118435252Y-57913618D01*
X118435246Y-57913620D01*
X118315980Y-57958104D01*
X118315978Y-57958104D01*
X118307669Y-57961204D01*
X118300572Y-57966516D01*
X118300568Y-57966519D01*
X118199550Y-58042141D01*
X118199546Y-58042144D01*
X118195269Y-58045346D01*
X118195261Y-58045352D01*
X118192454Y-58047454D01*
X118192341Y-58047303D01*
X118158283Y-58070061D01*
X118110830Y-58079500D01*
X117901073Y-58079500D01*
X117889404Y-58078950D01*
X117889317Y-58078941D01*
X117881704Y-58077240D01*
X117873905Y-58077485D01*
X117811724Y-58079439D01*
X117807829Y-58079500D01*
X117779075Y-58079500D01*
X117775212Y-58079987D01*
X117775193Y-58079989D01*
X117774691Y-58080053D01*
X117763069Y-58080967D01*
X117725224Y-58082156D01*
X117725215Y-58082157D01*
X117717431Y-58082402D01*
X117709944Y-58084576D01*
X117709937Y-58084578D01*
X117697043Y-58088324D01*
X117677996Y-58092269D01*
X117664676Y-58093951D01*
X117664669Y-58093952D01*
X117656942Y-58094929D01*
X117649698Y-58097796D01*
X117649690Y-58097799D01*
X117614495Y-58111733D01*
X117603451Y-58115514D01*
X117567097Y-58126076D01*
X117567087Y-58126080D01*
X117559602Y-58128255D01*
X117552888Y-58132225D01*
X117552882Y-58132228D01*
X117552873Y-58132234D01*
X117552863Y-58132236D01*
X117545729Y-58135324D01*
X117545289Y-58134308D01*
X117489756Y-58149500D01*
X117460609Y-58149500D01*
X117454250Y-58150851D01*
X117454246Y-58150852D01*
X117292093Y-58185318D01*
X117292082Y-58185321D01*
X117285733Y-58186671D01*
X117279804Y-58189310D01*
X117279794Y-58189314D01*
X117128342Y-58256745D01*
X117128334Y-58256749D01*
X117122408Y-58259388D01*
X117117159Y-58263201D01*
X117117153Y-58263205D01*
X116983023Y-58360656D01*
X116983014Y-58360663D01*
X116977770Y-58364474D01*
X116973426Y-58369297D01*
X116973423Y-58369301D01*
X116862487Y-58492507D01*
X116862482Y-58492513D01*
X116858141Y-58497335D01*
X116854896Y-58502955D01*
X116854892Y-58502961D01*
X116771998Y-58646538D01*
X116771995Y-58646543D01*
X116768750Y-58652165D01*
X116766744Y-58658337D01*
X116766742Y-58658343D01*
X116720640Y-58800231D01*
X116713503Y-58822197D01*
X116712824Y-58828649D01*
X116712823Y-58828658D01*
X116702502Y-58926865D01*
X116694815Y-59000000D01*
X114700500Y-59000000D01*
X114700500Y-57634411D01*
X114709939Y-57586958D01*
X114736819Y-57546730D01*
X120546731Y-51736819D01*
X120586959Y-51709939D01*
X120634412Y-51700500D01*
X130977410Y-51700500D01*
X131022590Y-51700500D01*
X141365589Y-51700500D01*
X141413042Y-51709939D01*
G37*
%TD.AperFunction*%
%TD*%
M02*
